<svg xmlns="http://www.w3.org/2000/svg" width="20" height="21" viewBox="0 0 20 21">
    <path fill="#124A6B" fill-rule="nonzero" d="M17.6 2.2h-1.1V.55a.55.55 0 0 0-.55-.55h-1.1a.55.55 0 0 0-.55.55V2.2H5.5V.55A.55.55 0 0 0 4.95 0h-1.1a.55.55 0 0 0-.55.55V2.2H2.2A2.2 2.2 0 0 0 0 4.4v14.3a2.2 2.2 0 0 0 2.2 2.2h15.4a2.2 2.2 0 0 0 2.2-2.2V4.4a2.2 2.2 0 0 0-2.2-2.2zm0 16.5H2.2V6.6h15.4v12.1zM9.35 11h1.1a.55.55 0 0 0 .55-.55v-1.1a.55.55 0 0 0-.55-.55h-1.1a.55.55 0 0 0-.55.55v1.1c0 .304.246.55.55.55zm4.4 0h1.1a.55.55 0 0 0 .55-.55v-1.1a.55.55 0 0 0-.55-.55h-1.1a.55.55 0 0 0-.55.55v1.1c0 .304.246.55.55.55zm-8.8 0h1.1a.55.55 0 0 0 .55-.55v-1.1a.55.55 0 0 0-.55-.55h-1.1a.55.55 0 0 0-.55.55v1.1c0 .304.246.55.55.55zm4.4 4.4h1.1a.55.55 0 0 0 .55-.55v-1.1a.55.55 0 0 0-.55-.55h-1.1a.55.55 0 0 0-.55.55v1.1c0 .304.246.55.55.55zm-4.4 0h1.1a.55.55 0 0 0 .55-.55v-1.1a.55.55 0 0 0-.55-.55h-1.1a.55.55 0 0 0-.55.55v1.1c0 .304.246.55.55.55z"/>
</svg>
