<svg xmlns="http://www.w3.org/2000/svg" width="26" height="23" viewBox="0 0 26 23">
    <g fill="none" fill-rule="evenodd" stroke="#124A6B" stroke-width=".672" transform="translate(1 1)">
        <path d="M19.656 10.534v9.727c0 .487-.403.89-.89.89H.94a.896.896 0 0 1-.89-.89V6.166c0-.488.403-.89.89-.89H13.86M14.902 8.484H.05"/>
        <path d="M2.755 11.256v-.252c0-.118.101-.235.235-.235H4.2c.118 0 .235.1.235.235v1.21a.24.24 0 0 1-.235.235H2.974a.222.222 0 0 1-.219-.219v-.487M7.375 12.449h-1.21a.24.24 0 0 1-.235-.235v-1.21c0-.118.101-.235.236-.235h1.21c.117 0 .234.1.234.235v1.21a.23.23 0 0 1-.235.235zM10.567 12.449h-1.21a.24.24 0 0 1-.235-.235v-1.21c0-.118.101-.235.236-.235h1.21c.117 0 .234.1.234.235v1.21a.23.23 0 0 1-.235.235zM13.76 12.449h-1.21a.24.24 0 0 1-.236-.235v-1.21c0-.118.101-.235.236-.235h1.21c.117 0 .234.1.234.235v1.21a.23.23 0 0 1-.235.235zM16.951 12.449h-1.21a.24.24 0 0 1-.235-.235v-1.21c0-.118.101-.235.236-.235h1.21c.117 0 .234.1.234.235v1.21a.23.23 0 0 1-.235.235zM4.183 15.607h-1.21a.24.24 0 0 1-.235-.235v-1.21c0-.117.101-.235.236-.235h1.21c.117 0 .234.101.234.235v1.21a.23.23 0 0 1-.235.235zM7.375 15.607h-1.21a.24.24 0 0 1-.235-.235v-1.21c0-.117.101-.235.236-.235h1.21c.117 0 .234.101.234.235v1.21a.23.23 0 0 1-.235.235zM10.802 15.07v.319a.24.24 0 0 1-.235.235h-1.21a.24.24 0 0 1-.235-.235v-1.21c0-.117.101-.235.236-.235h1.226c.118 0 .218.1.218.218v.908zM13.76 15.607h-1.21a.24.24 0 0 1-.236-.235v-1.21c0-.117.101-.235.236-.235h1.21c.117 0 .234.101.234.235v1.21a.23.23 0 0 1-.235.235zM16.951 15.607h-1.21a.24.24 0 0 1-.235-.235v-1.21c0-.117.101-.235.236-.235h1.21c.117 0 .234.101.234.235v1.21a.23.23 0 0 1-.235.235zM4.183 18.782h-1.21a.24.24 0 0 1-.235-.235v-1.21c0-.117.101-.235.236-.235h1.21c.117 0 .234.101.234.236v1.21a.23.23 0 0 1-.235.234zM7.375 18.782h-1.21a.24.24 0 0 1-.235-.235v-1.21c0-.117.101-.235.236-.235h1.21c.117 0 .234.101.234.236v1.21a.23.23 0 0 1-.235.234zM10.567 18.782h-1.21a.24.24 0 0 1-.235-.235v-1.21c0-.117.101-.235.236-.235h1.21c.117 0 .234.101.234.236v1.21a.23.23 0 0 1-.235.234zM12.331 17.338v1.226c0 .118.101.235.235.235h1.21a.24.24 0 0 0 .235-.235v-1.226c0-.118-.1-.202-.201-.202h-1.244a.204.204 0 0 0-.235.202zM16.212.94a5.251 5.251 0 0 1 2.873-.856 5.248 5.248 0 0 1 5.241 5.242 5.248 5.248 0 0 1-5.241 5.241 5.248 5.248 0 0 1-5.242-5.241A5.326 5.326 0 0 1 16.212.94M19.068 4.687l.42-2.049M22.092 7.039l-2.57-1.461"/>
        <circle cx="19.051" cy="5.174" r="1"/>
    </g>
</svg>
