<svg xmlns="http://www.w3.org/2000/svg" width="80" height="80" viewBox="0 0 80 80">
    <path fill="#FFF" fill-rule="nonzero" d="M39.585 0C17.723 0 0 17.723 0 39.585 0 61.447 17.723 79.17 39.585 79.17c21.862 0 39.585-17.723 39.585-39.585A39.585 39.585 0 0 0 39.585 0zm0 71.253c-17.49 0-31.668-14.178-31.668-31.668S22.095 7.917 39.585 7.917s31.668 14.178 31.668 31.668a31.668 31.668 0 0 1-31.668 31.668zm15.121-45.562a1.98 1.98 0 0 0-2.77 0L33.172 44.454l-5.938-5.898a1.9 1.9 0 0 0-2.77 0l-2.098 2.098a1.98 1.98 0 0 0 0 2.81l9.302 9.382a1.9 1.9 0 0 0 2.77 0l22.248-22.247a1.98 1.98 0 0 0 0-2.81l-1.98-2.098z" opacity=".309" style="mix-blend-mode:overlay"/>
</svg>
