<svg xmlns="http://www.w3.org/2000/svg" width="66" height="67" viewBox="0 0 66 67">
    <path fill="#FFF" fill-rule="nonzero" d="M36.226 16.5v15.18l10.706 10.706a1.833 1.833 0 0 1 0 2.603l-1.943 1.943a1.833 1.833 0 0 1-2.603 0L30.323 34.87a1.943 1.943 0 0 1-.55-1.283V16.5c0-1.013.82-1.834 1.833-1.834h2.787c1.012 0 1.833.821 1.833 1.834zm29.773 7.333V5.5c0-1.013-.821-1.833-1.834-1.833h-1.063a1.797 1.797 0 0 0-1.32.55L56.32 9.68C45.285-1.29 28.088-3.063 15.048 5.426S-3.33 30.359 2.238 44.888c5.566 14.53 20.526 23.196 35.9 20.798 15.373-2.398 26.983-15.209 27.86-30.743a1.833 1.833 0 0 0-.476-1.357 1.907 1.907 0 0 0-1.32-.587h-3.666a1.833 1.833 0 0 0-1.834 1.724c-.936 13.907-12.8 24.525-26.726 23.918C18.05 58.034 7.155 46.423 7.433 32.487 7.71 18.551 19.06 7.385 32.999 7.333a25.41 25.41 0 0 1 18.077 7.59l-6.527 6.527a1.797 1.797 0 0 0-.55 1.32v1.063c0 1.012.821 1.833 1.833 1.833h18.333c1.013 0 1.834-.82 1.834-1.833z" opacity=".309" style="mix-blend-mode:overlay"/>
</svg>
