<svg xmlns="http://www.w3.org/2000/svg" width="41" height="41" viewBox="0 0 41 41">
    <path fill="#FFF" fill-rule="nonzero" d="M28.285 13.578L21.563 20.3l6.677 6.676c.36.361.36.903 0 1.264a.89.89 0 0 1-.632.27.89.89 0 0 1-.632-.27L20.3 21.563l-6.722 6.722a.89.89 0 0 1-.631.27.89.89 0 0 1-.632-.27.872.872 0 0 1 0-1.263l6.722-6.722-6.722-6.722a.872.872 0 0 1 0-1.263.872.872 0 0 1 1.263 0l6.722 6.722 6.722-6.722a.872.872 0 0 1 1.263 0c.36.361.36.903 0 1.263zM40.6 20.3c0 11.188-9.112 20.3-20.3 20.3S0 31.488 0 20.3 9.112 0 20.3 0s20.3 9.112 20.3 20.3zm-1.804 0c0-10.195-8.3-18.496-18.496-18.496-10.195 0-18.496 8.3-18.496 18.496 0 10.195 8.3 18.496 18.496 18.496 10.195 0 18.496-8.3 18.496-18.496z"/>
</svg>
