<svg xmlns="http://www.w3.org/2000/svg" width="80" height="80" viewBox="0 0 80 80">
    <path fill="#FFF" fill-rule="nonzero" d="M67.973 12.288c-15.353-15.352-40.243-15.352-55.596 0-15.352 15.352-15.352 40.243 0 55.596 15.353 15.352 40.243 15.352 55.596 0a39.312 39.312 0 0 0 0-55.596zM17.937 62.324c-12.282-12.282-12.282-32.194 0-44.476 12.282-12.282 32.194-12.282 44.476 0 12.282 12.282 12.282 32.194 0 44.476a31.45 31.45 0 0 1-44.476 0zm34.747-15.289l-6.95-6.95 6.95-6.949a1.966 1.966 0 0 0 0-2.78l-2.78-2.78a1.966 1.966 0 0 0-2.78 0l-6.949 6.95-6.95-6.95a1.966 1.966 0 0 0-2.78 0l-2.779 2.78a1.966 1.966 0 0 0 0 2.78l6.95 6.95-6.95 6.95a1.966 1.966 0 0 0 0 2.78l2.78 2.779a1.966 1.966 0 0 0 2.78 0l6.949-6.95 6.95 6.95a1.966 1.966 0 0 0 2.78 0l2.779-2.78a1.966 1.966 0 0 0 0-2.78z" opacity=".309" style="mix-blend-mode:overlay"/>
</svg>
