<svg xmlns="http://www.w3.org/2000/svg" width="27" height="20" viewBox="0 0 27 20">
    <path fill="#124A6B" fill-rule="nonzero" d="M16.65 8.182h3.6c.248 0 .45-.204.45-.455a.452.452 0 0 0-.45-.454h-3.6a.452.452 0 0 0-.45.454c0 .251.202.455.45.455zm0 3.636h7.2c.248 0 .45-.203.45-.454a.452.452 0 0 0-.45-.455h-7.2a.452.452 0 0 0-.45.455c0 .25.202.454.45.454zm5.4-3.636h1.8c.248 0 .45-.204.45-.455a.452.452 0 0 0-.45-.454h-1.8a.452.452 0 0 0-.45.454c0 .251.202.455.45.455zm1.743 6.392h-3.6a.452.452 0 0 0-.45.454c0 .251.202.455.45.455h3.6c.25 0 .45-.204.45-.455a.452.452 0 0 0-.45-.454zM24.75 0H2.25C1.01 0 0 1.02 0 2.273v15.454C0 18.981 1.01 20 2.25 20h22.5c1.24 0 2.25-1.02 2.25-2.273V2.273C27 1.02 25.99 0 24.75 0zm1.35 17.727c0 .752-.606 1.364-1.35 1.364H2.25c-.744 0-1.35-.612-1.35-1.364V3.637h25.2v14.09zm0-15H.9v-.454C.9 1.52 1.506.909 2.25.909h22.5c.744 0 1.35.612 1.35 1.364v.454zm-9.45 12.728h1.8c.248 0 .45-.204.45-.455a.452.452 0 0 0-.45-.455h-1.8a.452.452 0 0 0-.45.455c0 .25.202.455.45.455zm-13.5 1.818l10.8-.001c.248 0 .45-.204.45-.455 0-1.325-.89-2.476-2.16-2.798l-1.675-.423-.093-.374a3.519 3.519 0 0 0 .863-1.726.93.93 0 0 0 .53-.73l.118-.948a.937.937 0 0 0-.441-.912l.032-.666.121-.123c.26-.278.612-.876.05-1.745-.272-.418-.832-.917-1.96-.917-.339 0-1.108 0-1.848.476-2.142.066-2.42 1.159-2.42 2.112 0 .188.035.559.067.847a.932.932 0 0 0-.468.928l.118.95a.907.907 0 0 0 .586.74c.116.612.407 1.206.818 1.67l-.103.42-1.673.422A2.874 2.874 0 0 0 2.7 16.818a.455.455 0 0 0 .45.455zm1.93-2.371l1.936-.49a.451.451 0 0 0 .326-.33l.23-.93a.457.457 0 0 0-.128-.44 2.568 2.568 0 0 1-.772-1.62.452.452 0 0 0-.45-.42l-.095-.017-.05-.97a.45.45 0 0 0 .338-.154.46.46 0 0 0 .11-.358c-.042-.332-.108-.933-.108-1.13 0-.584 0-1.188 1.668-1.205.091 0 .182-.03.257-.084.54-.39 1.15-.39 1.444-.39.59 0 .984.165 1.206.506.259.4.132.535.058.615l-.235.238a.456.456 0 0 0-.131.299l-.057 1.187a.491.491 0 0 0 .464.498l-.16.967a.452.452 0 0 0-.449.418 2.588 2.588 0 0 1-.809 1.653.456.456 0 0 0-.136.448l.22.89c.04.162.166.29.328.33l1.934.49a1.96 1.96 0 0 1 1.429 1.46H3.652a1.962 1.962 0 0 1 1.428-1.461z"/>
</svg>
