<svg xmlns="http://www.w3.org/2000/svg" width="166" height="167" viewBox="0 0 166 167">
    <g fill="none" fill-rule="evenodd">
        <path stroke="#FFF" stroke-width="2.72" d="M82.835 2c44.942 0 81.375 36.433 81.375 81.375s-36.433 81.375-81.375 81.375H10.76a9.3 9.3 0 0 1-9.3-9.3V83.375C1.46 38.433 37.893 2 82.835 2z"/>
        <g fill="#FFF" fill-rule="nonzero" transform="translate(39.59 40.13)">
            <path d="M45.338 87.048H1.814A1.814 1.814 0 0 1 0 85.235v-8.713c0-.148.018-.297.054-.438.95-3.787 2.434-7.49 6.855-8.966l16.097-5.365c3.783-1.581 5.553-7.841 5.934-10.217-2.778-2.55-5.364-6.383-5.364-9.825 0-1.284-.381-1.814-.58-1.912-.567-.141-.886-.5-1.103-1.04-.204-.498-1.944-4.948-1.944-7.93 0-.148.018-.297.054-.438.196-.798.754-1.959 1.759-2.64v-9.616C21.762 10.562 28.661 0 39.897 0c11.102 0 14.116 5.69 14.468 8.505 1.883 1.393 3.667 3.787 3.667 9.63v9.615c1.005.682 1.563 1.843 1.76 2.64.035.142.054.29.054.44 0 2.98-1.741 7.431-1.945 7.928-.217.54-.678.947-1.244 1.088-.058.051-.438.58-.438 1.865 0 3.442-2.587 7.275-5.361 9.821.38 2.376 2.165 8.647 6.057 10.265.9.377 1.469 1.436 1.132 2.35-.338.907-1.194 1.444-2.137 1.132l-.257-.084c-6.41-2.666-8.502-12.114-8.502-14.417 0-.54.24-1.052.66-1.4 2.376-1.962 4.78-5.227 4.78-7.667 0-2.71 1.121-4.211 2.184-4.922.522-1.422 1.353-4.005 1.436-5.684-.065-.141-.148-.29-.206-.34-1.002-.004-1.6-.748-1.6-1.749V18.135c0-5.339-1.716-6.423-2.448-6.891-.44-.283-1.179-.747-1.288-1.745-.022-.218.011-.46.08-.707-.254-1.44-2.434-5.165-10.852-5.165-8.854 0-14.508 8.592-14.508 14.508v10.881a1.814 1.814 0 0 1-1.813 1.814c.087 0 .054.123.007.26.08 1.69.917 4.277 1.436 5.695 1.063.71 2.184 2.216 2.184 4.926 0 2.44 2.404 5.705 4.78 7.667.42.348.66.86.66 1.4 0 2.303-2.093 11.751-8.371 14.37L8.052 70.56c-2.568.852-3.587 2.92-4.425 6.187v6.674h41.71a1.814 1.814 0 0 1 0 3.627z"/>
            <path d="M60.125 87.048h-7.533a1.814 1.814 0 0 1-1.814-1.813V77.7c0-.482.192-.943.53-1.284l12.15-12.15a10.929 10.929 0 0 1-.123-1.632c0-6.54 5.317-11.86 11.856-11.86 6.54 0 11.857 5.324 11.857 11.863 0 7.077-6.18 12.865-13.492 11.73l-12.15 12.15c-.338.338-.799.53-1.281.53zm-5.72-3.627h4.969L71.67 71.125a1.786 1.786 0 0 1 1.69-.486 8.196 8.196 0 0 0 1.831.225c4.538 0 8.234-3.692 8.234-8.23 0-4.537-3.7-8.229-8.237-8.229-4.538 0-8.23 3.696-8.23 8.233 0 .58.076 1.18.225 1.832a1.811 1.811 0 0 1-.486 1.69L54.405 78.452v4.969z"/>
            <circle cx="77.981" cy="59.846" r="1.814"/>
        </g>
    </g>
</svg>
