<svg xmlns="http://www.w3.org/2000/svg" xmlns:xlink="http://www.w3.org/1999/xlink" width="260" height="176" viewBox="0 0 260 176">
    <defs>
        <path id="a" d="M.178 11.638h4.715V6.922H.178v4.716zm5.894 0h4.715V6.922H6.072v4.716zm0-6.002h4.715V.92H6.072v4.716zm-5.894 0h4.715V.92H.178v4.716z"/>
        <path id="c" d="M6.072 5.636h4.715V.92H6.072v4.716zm-5.894 0h4.714V.92H.178v4.716zm5.894 6.001h4.715V6.922H6.072v4.715zm-5.894 0h4.714V6.922H.178v4.715z"/>
        <path id="e" d="M6.072 5.636h4.715V.92H6.072v4.716zm-5.894 0h4.714V.92H.178v4.716zm5.894 6.001h4.715V6.922H6.072v4.715zm-5.894 0h4.714V6.922H.178v4.715z"/>
        <linearGradient id="f" x1="50%" x2="50%" y1="0%" y2="100%">
            <stop offset="0%" stop-color="#E5332F"/>
            <stop offset="100%" stop-color="#E5332F" stop-opacity="0"/>
        </linearGradient>
        <path id="h" d="M.567 14.575h4.929L22.484 3.866l16.984 10.709h4.931L22.484.758.567 14.575zm34.386 9.257c-1.426 3.068-2.871 4.032-5.471 6.326-3.063 2.705-5.308 4.895-6.998 7.817-1.694-2.922-3.939-5.112-7.002-7.817-2.565-2.263-4.051-3.28-5.471-6.327v-9.674l-2.347 1.479v8.7c1.686 3.858 3.231 4.904 6.265 7.581 4.301 3.799 6.862 6.351 8.555 12.131 1.689-5.78 4.25-8.332 8.551-12.131 3.062-2.702 4.582-3.726 6.264-7.581v-8.7l-2.346-1.479v9.675z"/>
        <path id="j" d="M.567 14.575h4.929L22.484 3.866l16.984 10.709h4.931L22.484.758.567 14.575zm34.386 9.257c-1.426 3.068-2.871 4.032-5.471 6.326-3.063 2.705-5.308 4.895-6.998 7.817-1.694-2.922-3.939-5.112-7.002-7.817-2.565-2.263-4.051-3.28-5.471-6.327v-9.674l-2.347 1.479v8.7c1.686 3.858 3.231 4.904 6.265 7.581 4.301 3.799 6.862 6.351 8.555 12.131 1.689-5.78 4.25-8.332 8.551-12.131 3.062-2.702 4.582-3.726 6.264-7.581v-8.7l-2.346-1.479v9.675z"/>
        <path id="l" d="M.567 14.575h4.929L22.484 3.866l16.984 10.709h4.931L22.484.758.567 14.575zm34.386 9.257c-1.426 3.068-2.871 4.032-5.471 6.326-3.063 2.705-5.308 4.895-6.998 7.817-1.694-2.922-3.939-5.112-7.002-7.817-2.565-2.263-4.051-3.28-5.471-6.327v-9.674l-2.347 1.479v8.7c1.686 3.858 3.231 4.904 6.265 7.581 4.301 3.799 6.862 6.351 8.555 12.131 1.689-5.78 4.25-8.332 8.551-12.131 3.062-2.702 4.582-3.726 6.264-7.581v-8.7l-2.346-1.479v9.675z"/>
        <linearGradient id="m" x1="50%" x2="50%" y1="0%" y2="100%">
            <stop offset="0%" stop-color="#E5332F"/>
            <stop offset="100%" stop-color="#E5332F" stop-opacity="0"/>
        </linearGradient>
        <path id="o" d="M63.784.5c-.18.003-.362.011-.546.027-4.766.392-9.87 2.358-14.2 4.306-4.767 2.143-9.622 4.13-14.317 6.434-4.257 2.087-8.418 4.303-12.252 7.108-1.574 1.151-3.336 2.659-3.514 4.724-.176 2.037-.371 4.647.964 6.339 2.947 3.739 6.072 7.334 8.926 11.149 2.72 3.634 5.799 7.679 7.033 12.117.378 1.359.419 1.757-.868 2.392a48.568 48.568 0 0 1-3.288 1.494c-.788.317-.701.376-1.196-.15-.362-.384-.652-.86-.981-1.273a11.145 11.145 0 0 0-2.253-2.171c-1.882-1.342-3.978-2.19-6.057-.741-1.813 1.264-2.692 3.299-3.136 5.374-.454 2.136-1.009 4.685 1.284 5.97 2.089 1.17 4.674.484 6.843-.038.941-.227 2.693-1.428 2.916.063.144.96-.724 1.622-1.333 2.232-1.714 1.719-3.592 3.215-5.508 4.701-3.62 2.809-7.34 5.685-11.916 6.685-2.142.468-4.345.428-6.147-.956-1.891-1.453-2.304-3.364-2.228-5.659.045-1.322.305-2.552.711-3.806.134-.413.937-2.434.361-2.689-1.133-.5-2.299 5.207-2.401 5.884a19.98 19.98 0 0 0-.226 2.874v.195c.018 3.471 1.011 7.183 4.145 8.82 3.907 2.039 9.014-.225 12.328-2.466 1.993-1.347 3.813-2.96 5.692-4.455 1.72-1.369 3.443-2.853 4.917-4.488 1.689-1.874 2.627-3.825 3.258-6.248.198-.764.275-1.944.826-2.558.467-.522 1.453-.738 2.056-1.023 2.136-1.004 3.25-1.989 3.8-4.34.264-1.131.469-2.344.546-3.503.029-.443-.274-2.902.014-2.994 2.655 4.308 5.353 8.668 8.482 12.645 1.033 1.315 2.926 2.266 4.565 2.654.512.122 1.351.037 1.792.294.442.258.306.86.376 1.405.13 1.004.626 1.128.927.156.18-.58.189-1.324.664-1.603.358-.209 1.098-.189 1.511-.263 1.145-.204 2.233-.455 3.317-.884a91.67 91.67 0 0 0 6.498-2.876c3.998-1.962 7.909-4.201 12.033-5.898a26.462 26.462 0 0 1 3.457-1.157c.895-.232 2.193-.157 2.992-.538.696-.333.799-1.348 1.028-2.027.324-.962.695-1.913.928-2.9a79.541 79.541 0 0 1-13.196-2.667c-4.275-1.249-8.567-2.857-12.976-3.534-4.251-.655-8.689.373-10.484 4.692-.789 1.901-1.238 4.283-.648 6.29.629 2.133 1.661 4.22 2.465 6.297-1.845-.097-3.248-1.437-4.469-2.678-1.629-1.656-2.907-3.374-4.154-5.331-2.403-3.766-5.111-7.296-7.606-10.985-2.322-3.432-4.868-6.676-7.795-9.613a543.222 543.222 0 0 0-4.709-4.649c-.335-.328-1.654-1.23-1.702-1.616-.085-.682 1.195-1.427 1.605-1.74 6.581-5.055 14.282-8.415 21.908-11.594 3.798-1.582 7.729-2.854 11.512-4.437 1.196-.501 10.194-3.12 9.185.397-.276.964-1.47 2.121-2.062 2.944a54.152 54.152 0 0 1-1.758 2.328c-1.195 1.486-2.241 3.073-3.398 4.587-1.217 1.592-2.24 3.419-3.003 5.275-.558 1.357-1.72 4.018-1.124 5.476.783-.852 1.212-2.199 1.763-3.207a42.479 42.479 0 0 1 1.876-3.121c2.642-3.965 5.867-7.533 8.147-11.74.993-1.83 2.352-4.392 2.031-6.537C67.679 1.413 65.983.527 63.966.5h-.182zm-9.173 59.427c-.02-.227-.038-.398-.045-.473-.055-.49-.924-3.595-.924-3.595-.398-1.226-.932-2.406-1.423-3.598-.398-.969-1.41-2.258-.524-3.119.815-.789 2.145-1.15 3.21-1.417 2.682-.666 5.367.134 7.956.832 2.582.696 5.152 1.611 7.765 2.177 1.731.375 3.429.772 5.119 1.317-4.521 2.253-9.046 4.583-13.753 6.415-1.32.513-2.682 1.022-4.063 1.349-.676.159-1.364.263-2.056.318-.332.026-.571.068-.757.068-.221 0-.367-.059-.505-.274zM20.743 57.82c1.052-2.134 4.001-.865 5.248.321-1.245.221-2.494.501-3.757.6-.227.018-.488.042-.733.042-.628 0-1.156-.155-.758-.963z"/>
        <path id="q" d="M99.453.579c-.501.065-1.179 3.003-1.333 3.458-.17.503-.444 1.004-.314 1.536.167.677.486 1.147.565 1.888.152 1.41.325 2.8.547 4.202 1.608 10.19 3.417 20.349 5.003 30.542.392 2.522.813 5.048 1.102 7.584.128 1.122.389 2.512.256 3.633-.103.862-.832 1.358-1.574 1.734-2.094 1.059-4.498 1.897-6.863 1.953-1.147.028-2.126-.244-3.019-.981-.429-.354-1.886-1.717-1.809-2.336.029-.23.968-.735 1.153-.914.341-.332.648-.704.904-1.104.556-.862 1.05-1.932 1.408-2.894.746-2.006.972-4.67.336-6.723-.493-1.592-1.627-4.731-3.303-5.428-2.026-.844-3.942 1.608-4.571 3.201-.83 2.104-1.143 4.657-.816 6.899.169 1.16.527 2.358.846 3.487.192.682.498 1.015.044 1.54-.275.319-.921.502-1.282.669-1.835.846-4.245 1.662-6.24.83-2.126-.887-2.598-3.012-2.732-5.06-2.55.388-4.073 3.029-5.999 4.539a14.878 14.878 0 0 1-3.121 1.854c-.537.237-1.336.672-1.726.328-.349-.304-.61-1.174-.907-1.59-1.3-1.819-3.163-3.995-5.61-3.991-2.479.004-4.21 2.475-5.039 4.536-.803 1.996-1.448 4.691.229 6.462 1.592 1.683 4.344 1.313 6.375.968.678-.114 1.354-.24 2.03-.365.677-.125 1.113-.445 1.47.121.418.666-.023 1.168-.474 1.64-1.636 1.716-3.519 3.232-5.476 4.556-5.382 3.64-20.198 14.315-23.659 3.131-.681-2.198.046-4.618.66-6.761.29-1.015.691-2.296 1.379-3.119.575-.688 1.527-1.064 2.251-1.581 2.091-1.494 4.182-3.11 6.069-4.857.869-.804 1.632-1.702 2.417-2.588.813-.92 1.048-1.427 1.275-2.64.449-2.398.352-4.82.07-7.239-.138-1.174-.6-2.371-.674-3.534-.05-.789-.009-.616.735-.897.369-.14.727-.319 1.06-.529 1.776-1.121 2.593-3.067 3.955-4.576.388-.429 1.738-1.634 2.343-.908.398.476-.059 1.823.207 2.471 1.467-1.096 2.137-4.72 1.497-6.346-1.027-2.614-3.281-1.143-4.529.425-1.419 1.787-2.625 3.992-4.94 4.66-1.073.309-2.488.547-3.416-.2-.815-.655-1.469-1.731-2.187-2.509-.483 1.314-.679 2.8-.873 4.189-.186 1.331.912 2.209 1.714 3.201 1.805 2.226 2.915 4.717 3.423 7.541.155.866.522 2.039.057 2.849-.487.847-1.619 1.617-2.364 2.219-2.053 1.66-4.187 3.33-6.412 4.754-4.214 2.699-8.486 5.043-13.339 6.344-4.661 1.251-10.58 2.974-15.269.951-2.1-.908-3.777-1.863-5.353-3.567-1.463-1.583-2.378-3.761-2.986-5.81-.711-2.389-.856-4.934-.745-7.412.062-1.39.301-2.594.646-3.928.192-.745.072-2.717-.809-1.32C.51 41.682.463 44.662.177 46.833c-.337 2.552-.161 5.279.253 7.811.754 4.607 3.105 8.713 7.109 11.22 4.413 2.764 9.95 2.207 14.787 1.207 4.726-.976 8.859-2.863 13.111-5.056.045.726-.393 1.639-.586 2.349a31.319 31.319 0 0 0-.585 2.544c-.334 1.834-.47 3.709-.278 5.568.308 2.972 1.732 6.279 4.636 7.603 2.49 1.134 5.807.42 8.211-.566 2.779-1.139 5.51-2.656 8.033-4.279 2.517-1.619 4.947-3.466 7.123-5.522 2.089-1.974 4.098-4.019 4.907-6.85.388-1.362.592-2.675 1.84-3.48 1.191-.767 2.304-1.363 3.32-2.359.977-.958 1.925-2.151 3.073-2.911 1.336-.888 1.325-.35 1.696.88.767 2.537 2.927 4.041 5.56 3.762 2.843-.303 5.003-1.934 7.296-3.454.872 2.184 1.656 4.623 3.599 6.115 1.693 1.299 4.087.973 6.016.433 1.89-.529 4.208-1.484 5.531-2.991 1.288-1.466 1.982-3.584 2.42-5.454 1.031-4.391.088-8.979-.572-13.349-.706-4.679-1.482-9.346-2.224-14.02a1133.03 1133.03 0 0 1-1.114-7.121c-.328-2.166-.9-4.299-1.165-6.468.613.379 1.646 2.42 2.534 1.926.869-.485-.292-2.579-.52-3.196a227.796 227.796 0 0 0-2.972-7.602c-.21-.516-.821-2.998-1.701-2.998a.44.44 0 0 0-.062.004zm-9.964 46.369c-.245-.88-.754-1.954-.803-2.868-.066-1.195 1.513-2.769 2.737-2.142 1.019.523 2.623 3.561 2.668 4.712.051 1.297-2.621 2.786-3.627 3.428a48.02 48.02 0 0 1-.975-3.13zm-32.224 9.098c1.201-2.236 3.615-.918 5.045.312-.698.14-1.403.219-2.104.219-.997 0-1.987-.16-2.941-.531z"/>
        <path id="s" d="M56.097 3.292c-.396.455-.677 1.017-1.08 1.459-.381.414-.897.623-1.294 1.018-.925.919-1.5 2.351-2.153 3.464-1.253 2.138-2.582 3.882-4.562 5.398a87.527 87.527 0 0 1-6.404 4.473 132.795 132.795 0 0 1-13.734 7.593c-4.852 2.311-9.584 4.821-14.517 6.97-2.439 1.063-4.912 2.05-7.372 3.064-1.006.415-2.919.845-3.708 1.618-.927.908.307.865 1.123.727 5.096-.861 10.15-2.221 15.127-3.588 2.419-.664 4.838-1.254 7.109-2.334 2.332-1.11 4.533-2.485 6.763-3.784 4.519-2.635 8.96-5.25 13.19-8.336 1.814-1.324 3.453-2.642 4.793-4.467.801-1.089 1.451-2.294 2.094-3.481.458-.849.866-1.976 1.701-2.537.251.585.206.898.685 1.334.45.409 1.093.691 1.64.933 1.283.568 2.654.934 4.005 1.298.296.079.648.124.927.247.698.311.329.04.582.584.298.642.335 1.57.468 2.255a17.802 17.802 0 0 0 1.351 4.097c.914 1.945 2.127 3.849 3.979 5.012 2.547 1.597 4.034.12 5.098-2.299 1.838-4.176 3.033-10.235 7.648-12.375 1.124-.521 1.968-.71 2.71.334.696.978 1.256 2.044 1.957 3.02 1.277 1.781 3.073 3.858 5.358 4.201 2.351.354 4.799-.052 6.568-1.742.775-.74 1.347-1.685 1.84-2.629.393-.751.603-2.052 1.336-2.542.292.766.363 1.166 1.094 1.641.743.486 1.567.81 2.401 1.098 1.965.68 3.941 1.204 6.018 1.34 1.261.083 1.467.045 2.034-1.149.817-1.722 1.109-3.073.781-4.962-.3-1.727-1.052-3.265-1.844-4.817-.579-1.133-1.483-2.599-2.872-2.73-1.689-.16-3.489 1.011-4.574 2.185-.461.501-.758 1.145-1.228 1.629-.463.477-1.07.734-1.512 1.244-1.041 1.204-1.328 2.872-2.422 4.073a7.066 7.066 0 0 1-3.821 2.142c-1.51.298-3.475.323-4.828-.506-1.292-.792-2.418-2.149-3.305-3.358a49.54 49.54 0 0 1-1.7-2.518c-.363-.564-.674-1.297-1.343-1.551-1.144-.432-2.677.498-3.556 1.131-2.747 1.986-4.304 5.19-5.509 8.266-.855 2.183-2.198 7.042-5.394 6.537-3.222-.509-4.206-4.606-5.11-7.143.524-.076 1.134.008 1.543-.356.374-.335.568-1.114.765-1.561.624-1.413.882-2.647.643-4.192-.359-2.33-1.588-5.642-3.492-7.164a2.657 2.657 0 0 0-1.7-.583c-1.598 0-3.329 1.207-4.297 2.319zm.524 4.248c.588-1.051 1.73-1.381 2.866-1.033 1.206.368 1.784 1.424 2.08 2.572-1.695-.349-3.34-.902-4.946-1.539zm48.667 2.66c-.813-.265-1.774-.513-2.489-1.005 1.371-2.239 4.683-.676 4.891 1.6a1.593 1.593 0 0 1-.155.007c-.73 0-1.59-.387-2.247-.602z"/>
        <path id="u" d="M1.771 1.701C1.429 2.736.994 3.82.781 4.889c-.197.983.202 1.484.493 2.4.277.882.289 1.828.369 2.741.16 1.829.427 3.648.689 5.464.606 4.213 1.228 8.421 1.93 12.618 1.419 8.485 3.062 17.115 3.583 25.708.125 2.036.203 4.085.186 6.125-.005.567-.334 1.842-.025 2.337.373.601.732.327.999-.152 1.842-3.312 1.483-7.831 1.433-11.475-.117-8.476-1.898-16.986-3.341-25.322 4.052-2.617 8.339-5.015 11.84-8.368.754-.722 1.369-1.987 2.185-2.589.636-.469 1.039-.14 1.812.077 1.111.314 2.007.722 2.749-.431.467-.725.826-1.87.852-2.731.058-1.943-2.174-3.669-3.355-4.992-.974-1.09-2.789-3.006-3.823-.933-.507 1.02-.324 2.108-.723 3.11-.381.956-.847 1.662-.93 2.743-.146 1.89 1.169 1.816 2.544 2.557-2.122 1.949-4.323 3.814-6.631 5.541-1.212.906-2.444 1.784-3.666 2.676-.987.718-1.974 1.643-3.082 2.158-.669-4.271-1.842-8.65-1.987-12.98.646.426 1.328 2.273 2.171 2.281.981.008.498-1.284.272-1.884-.716-1.904-1.671-3.705-2.341-5.629a38.734 38.734 0 0 0-1.26-3.134C3.484 2.273 3.302.914 2.76.596a.67.67 0 0 0-.333-.111c-.439 0-.504.751-.656 1.216zm18.016 7.321c.759-.605 1.342-.868 1.904.086.41.696.545 1.353.257 2.11-1.235-.063-3.973-.749-2.161-2.196zM22.54 11.3l.618-1.923c.747.518 1.765 1.621 1.995 2.527a1.712 1.712 0 0 1-.602.108c-.706 0-1.364-.415-2.011-.712z"/>
        <path id="w" d="M2.608.958c-.397.197-.431.609-.555 1.002C1.728 2.99.845 4.753 1.012 5.838c.086.561.544.85.742 1.387.194.524.197 1.134.25 1.684.116 1.21.236 2.397.46 3.59C3.541 18.243 4.18 24.12 4.995 29.908c.808 5.723 1.978 11.474 2.402 17.234.204 2.775.514 5.513.498 8.3-.006 1.478-.022 2.95-.212 4.418-.124.961-.785 2.554-.121 3.428 1.337-1.366 2.078-3.726 2.532-5.569.459-1.873.516-3.935.524-5.856.021-4.447-.586-8.855-1.237-13.244-1.316-8.879-2.904-17.74-4.003-26.649.273-.093.591.574.961 1.242.406.733.875 1.465 1.413 1.192 1.01-.514-.155-2.922-.38-3.573-1.05-3.025-2.371-5.936-3.648-8.869-.192-.44-.313-1.098-.778-1.098a.768.768 0 0 0-.338.094z"/>
        <path id="y" d="M15.026.341c-.357.028-.665.057-.844.055C11.759.382 9.335.393 6.914.318 4.638.248 4.287 1.806 3.411 3.645c-.181.379-1.313 2.273-.505 2.194.222-.021.569-.465.839-.559.341-.118.752-.1 1.14-.08.157.008.311.016.455.014 2.41-.019 4.82-.008 7.23-.008.339.523-5.697 2.986-6.336 3.279-1.165.536-2.346 1.025-3.518 1.541-.454.2-2.748 1.022-1.892 1.811.591.543 2.603-.332 3.269-.486a54.75 54.75 0 0 1 3.582-.73c2.067-.339 3.949-1.047 5.58-2.391 1.609-1.326 3.015-3.414 3.845-5.318.245-.56.735-1.924.168-2.407-.199-.169-.638-.22-1.132-.22-.366 0-.761.028-1.11.056z"/>
        <path id="A" d="M21.015 1.686c-.74.761-1.473 2.456-1.183 3.543.34 1.282 2.054 1.709 3.125 2.096-1.06 1.844-3.302 3.491-5.038 4.657-1.936 1.299-4.021 2.404-6.107 3.437-1.995.987-3.859 2.198-5.818 3.252a496.543 496.543 0 0 1-3.445 1.838c-.773.408-2.068.776-2.435 1.659 3.624-.559 7.033-2.654 10.247-4.34 3.146-1.651 6.665-2.806 9.333-5.273 1.225-1.133 2.607-2.345 3.54-3.735.396-.589.521-1.153 1.286-.789.443.209.93.991 1.003 1.444.213 1.313-1.088 3.203-1.618 4.355-.672 1.465-1.374 2.925-1.81 4.482-.398 1.414-.915 3.637-.333 5.064.487 1.196 1.797 1.72 2.808.84.697-.606 2.331-2.999 1.84-4.019-.394-.814-.764-.038-1.056.418-.318.497-.691 1.083-1.349 1.047-1.826-.1-1.312-2.758-.906-3.779.61-1.535 1.427-2.986 2.059-4.513.629-1.521 1.48-3.419 1.494-5.094.015-1.574-1.632-1.837-1.899-3.038-.127-.578.173-1.31.101-1.93-.083-.714-.326-1.44-.799-1.991-.352-.409-.762-.576-1.183-.576-.657 0-1.337.407-1.857.945zm.703 1.407c1.311-.777 1.98 1.044 2.031 2.106-.858-.133-3.753-1.083-2.031-2.106z"/>
        <path id="C" d="M46.127.629c-1.594.569-3.228 1.705-4.776 2.457-1.539.75-3.081 1.489-4.601 2.278-6.524 3.389-13.088 6.687-19.575 10.145-3.059 1.629-6.042 3.384-8.982 5.22-1.704 1.065-3.418 2.136-5.069 3.283-.542.377-1.583.892-1.92 1.438-.34.548-.22 1.54-.271 2.175 6.828-4.454 13.561-8.889 20.834-12.615 6.467-3.312 12.81-6.984 19.428-9.985 1.519-.69 3.235-1.401 4.662-2.263.64-.387 1.556-2.216.667-2.216-.107 0-.237.027-.397.083z"/>
        <path id="E" d="M1.339 3.825c-.255.495-.717 1.111-.825 1.66-.127.648-.021.513.392.934.864.879 4.16 2.342 3.799 3.673-.285 1.044-1.34 1.912-1.568 2.984-.183.863.33 1.001 1.027 1.504.949.684 1.879 1.398 2.811 2.106.717.543 1.34 1.42 2.107.628.647-.669 1.064-1.809 1.431-2.663.514-1.197.618-1.508-.43-2.294-.92-.689-1.858-1.353-2.776-2.045-.541-.41-.893-.558-.885-1.214.012-.835.989-2.183 1.29-2.953.183-.471.635-1.291.379-1.799-.298-.592-1.542-1.162-2.063-1.506C5.022 2.177 3.997 1.545 2.986.891c-.683.883-1.135 1.942-1.647 2.934z"/>
        <path id="G" d="M8.187 2.254c-1.204.957-2.403 2.043-2.654 3.615-.254 1.589.639 2.082 2.166 1.895 1.661-.204 3.326-.619 4.931-1.078 1.512-.432 2.789-.839 3.793.67C11.455 9.197 5.625 11.33.262 10.66c-.969 1.067 2.363 1.824 3.002 1.857 1.537.079 3.112-.217 4.604-.559 1.564-.359 3.103-.832 4.638-1.3 1.364-.416 3.239-.679 4.44-1.451 2.5-1.609.832-4.999-1.756-5.138-1.374-.074-2.746.642-4.056.971-.814.205-3.727 1.18-4.313.382 1.155-.913 2.367-2.147 3.857-2.466.683-.146.583.007 1.113.236.295.127.07.337.389.261.147-.036.396-.594.433-.672.484-.99.319-2.083-1.029-2.184a1.623 1.623 0 0 0-.14-.005c-1.142 0-2.427 1.001-3.257 1.662z"/>
        <path id="I" d="M9.234 1.88c-.308.559-.915 2.401-1.517 2.595-.578.185-1.846-.942-2.308-1.209-.56-.323-2.43-1.575-2.871-1.279-.558.372-.99 1.908-1.342 2.517-.223.38-.469.745-.662 1.142-.237.491-.412.641-.048 1.046.503.559 1.695.897 2.358 1.28.677.392 1.809 1.365 2.574 1.474 1.334.188 2.367-3.076 2.864-4.067.977.126 2.071.963 2.895 1.476.353.222 2.107 1.729 2.468 1.659.595-.117 1.283-2.009 1.538-2.516.244-.489 1.056-1.696.794-2.251-.302-.641-1.847-1.349-2.405-1.706-.634-.404-2.004-1.624-2.759-1.668l-.051-.001c-.748-.001-1.24.981-1.528 1.508z"/>
        <path id="K" d="M9.805.635c-.948 0-2.047 4.06-2.35 4.801-1.08-.462-2.16-.922-3.24-1.381-.432-.185-.953-.535-1.408-.602-.612-.087-.351-.236-.762.302-.565.739-.816 1.988-1.169 2.863-.248.617-.713 1.229-.224 1.76.489.53 1.975.842 2.633 1.12.682.288 2.407 1.314 2.979 1.068.49-.211.84-1.558 1.034-1.995.397-.893.733-1.789 1.085-2.7 1.013.539 2.027 1.078 3.04 1.615.426.226.877.564 1.331.708.628.199.54.226.926-.377.602-.936 2.149-3.376 1.308-4.412-.516-.635-1.989-1.091-2.722-1.465-.468-.238-.942-.466-1.407-.709-.082-.042-.907-.594-1.05-.596h-.004z"/>
        <path id="M" d="M10.505.911C10.072.984 9.458 2.9 9.263 3.31c-.293.618-.537 1.607-1.323 1.766-.901-.494-4.719-3.203-5.403-2.668-.512.4-.906 2.005-1.157 2.598-.186.437-.828 1.434-.693 1.963.137.529 1.83 1.111 2.288 1.374.821.471 1.863 1.389 2.773 1.639.603.166.55.343.991-.338.22-.342.352-.738.507-1.112.375-.908.775-1.804 1.173-2.703l2.979 1.964c.599.395 1.786 1.54 2.364 1.12.582-.422.946-1.946 1.275-2.568.448-.848 1-1.47.304-2.266-.615-.703-1.544-1.236-2.328-1.727-.465-.29-1.87-1.445-2.448-1.445a.386.386 0 0 0-.06.004z"/>
        <path id="O" d="M.81 13.411c-.496 2.022-.846 4.836 1.074 6.297 1.841 1.401 3.43-1.178 3.953-2.657.21-.593.939-2.43.519-3.008-.641-.882-1.149.61-1.495 1.059-.713.93-1.406.883-1.964-.15-.554-1.021-.279-2.269.031-3.322.673-2.279 1.671-4.377 2.583-6.56a41.169 41.169 0 0 0 1.213-3.268c.222-.684.799-1.635-.184-1.759C4.51 4.364 1.954 8.748.81 13.411z"/>
        <path id="Q" d="M1.529 3.024c.002.719.092.831.687.387.645-.481 1.019-.921 1.77-.176-1.313.789-2.69 1.557-3.204 3.124-.577 1.761.229 3.189.875 4.788.756 1.871 1.468 3.754 1.921 5.724.422 1.83.272 3.341.096 5.184 1.43-.324 1.205-2.84 1.202-3.912-.007-1.81-.217-3.46-.759-5.194C3.585 11.24 2.82 9.645 2.08 8.021c-.348-.766-.414-.963.273-1.53a5.84 5.84 0 0 1 1.856-1.048c1.277-.423 2.771-.127 2.756-1.951-.01-1.137-1.54-2.201-2.5-2.637a2.39 2.39 0 0 0-.981-.227c-1.141 0-1.96.999-1.955 2.396z"/>
        <path id="S" d="M13.604 3.463c-1.855.986-3.715 1.965-5.562 2.966-1.801.976-3.517 2.092-5.256 3.171-1.524.944-2.966 2.088-2.546 4.103.71-.278 1.601-1.461 2.281-1.932a30.21 30.21 0 0 1 2.342-1.469c1.717-.978 3.428-1.966 5.168-2.904 1.894-1.022 3.789-2.045 5.696-3.046.83-.437 2.045-.832 2.664-1.577.265-.321.848-1.493.463-1.822-.045-.038-.113-.056-.202-.056-.981 0-4.418 2.231-5.048 2.566z"/>
        <path id="U" d="M7.072 1.015c-.787 1.68.676 3.584 1.512 4.898-1.435.882-2.358-.153-2.774-1.502-.207-.673-.725-3.294-1.655-3.265-.192 1.566.117 2.427.513 3.909.303 1.132.204 2.208-1.11 2.599-2.517.747-1.316-4.132-2.533-4.972-.675-.467-.68.026-.738.606-.034.33-.137.849-.046 1.152.109.36.226.183.409.488.601 1.003.411 2.422.815 3.533.379 1.041 1.293 1.786 2.414 1.341 1.27-.504 1.009-1.71 1.872-2.456.787 1.07 2.066 2 3.346.935.568-.472.781-1.387.876-2.086.135-.976-.253-1.531-.766-2.323-.488-.754-1.013-1.468-1.333-2.314-.159-.418-.278-.94-.473-.94-.09 0-.196.111-.329.397z"/>
        <path id="W" d="M1.51.95C.532 1.336.369 2.296.369 3.295c.995-.196 2.68-.835 3.499.073-1.053 1.691-2.497 3.486-2.704 5.544-.049.497-.027.884.149 1.172.438 1.109 2.235.88 3.664.342.124-.028.242-.07.361-.125l.024-.004c.881-.214 2.078-1.081 2.836-1.556.787-.492 1.622-.973 2.332-1.571.385-.323 2.003-1.648 2.023-2.224.042-1.193-1.531.303-1.79.477C8.864 6.705 6.827 7.481 4.63 8.082c-.607.166-2.047.708-2.341-.111-.193-.534 1.003-1.917 1.311-2.42.611-.999 2.253-3.529 1.025-4.407-.45-.322-1.054-.46-1.661-.46-.513 0-1.028.098-1.454.266z"/>
        <path id="Y" d="M8.236.854c-.726 1.094-.807 2.622-.927 3.889-.049.5.053 3.286-.334 3.388C6.3 6.907 5.61 5.678 4.609 4.683c-.683-.68-2.562-2.191-3.634-1.324C.247 3.949.458 6 1.21 6.406c.532.287 1.586.621 2.207.671.076.006.203-.059.315-.125.113-.066.211-.131.23-.126.24.077.467.446.629.627.482.538.899 1.145 1.267 1.766.299.505.546 1.422.96 1.833 1.19 1.187 1.068-2.26 1.115-2.923.113-1.567-.018-3.434.607-4.901.695-1.632 1.766-.491 2.578.432C12.309 2.121 10.986.015 9.591.014c-.475 0-.959.245-1.355.84z"/>
        <path id="aa" d="M2.191 2.845c-.321.598-.672 1.521-.488 2.208.196.724 1.009.979 1.61 1.285C1.766 7.279.464 7.802.632 9.919c1.957-.825 3.81-2.154 5.709-3.131.947-.487 1.924-.919 2.875-1.378.935-.452 1.055-.972 1.515-1.944-.713-.74-2.629.677-3.357 1.002-1.337.598-3.049-.182-4.268-.902.299-.404 1.422-1.317 2.013-1.243.559.07.355.521.705.832.571.51.861-.317 1.044-.908.243-.782.125-1.818-.812-2.078a1.313 1.313 0 0 0-.36-.048c-1.321 0-2.974 1.743-3.505 2.724z"/>
        <path id="ac" d="M8.153.475c-.875.517-.95 2.832-.965 3.674-.022 1.387.175 2.791.286 4.173-.261.07-1.711-2.606-2.027-2.999a6.27 6.27 0 0 0-3.165-2.117c-.278-.081-.663-.268-.963-.194-.516.129-.386.216-.435.804C.83 4.431.606 5.4.985 5.952c.357.52 1.232.625 1.789.812.732.246.934.489 1.361-.158a20.33 20.33 0 0 1 2.618 3.632c.148.259.544 1.109.963.999.342-.091.41-1.551.426-1.733.111-1.182-1.09-6.828.674-6.794.476.009 1.248.827 1.527.729.389-.134.353-.987.354-1.299.004-.79-.133-1.012-.832-1.339C9.496.628 9.031.359 8.596.359a.852.852 0 0 0-.443.116z"/>
        <path id="ae" d="M8.482 1.324c-1.589 1.677-.461 4.725-1.131 6.667-1.059-1.958-2.726-4.666-5.218-4.889-.926-.083-1.053.305-1.172 1.149-.062.444-.164 1.42.136 1.831.293.402 1.022.471 1.475.609.19.059.963.397 1.099.34.103-.044.261-.609.307-.719.833.775 1.591 1.501 2.204 2.47.335.531.801 2.306 1.447 2.449.6-.697.49-1.836.526-2.694.045-1.035.065-2.071.104-3.107.027-.721.042-1.952.947-2.198.663-.182 1.179.521 1.766.729.111-1.011.488-2.003-.425-2.684-.337-.252-.711-.4-1.076-.4-.352 0-.695.137-.989.447z"/>
        <path id="ag" d="M8.132.377C6.373 1.511 6.868 4.5 6.5 6.224c-.537-1.089-.992-2.3-1.857-3.177-.588-.594-2.171-1.865-3.063-1.501-.863.355-.806 2.311-.242 2.967.318.371 1.178.656 1.638.792l.498.212c.057-.071.115-.142.17-.213.103.01.133-.02.157-.052.037-.047.055-.096.309.016.988.434 1.484 2.486 1.94 3.348.872 1.65 1.101-.405 1.22-1.336.17-1.305-.105-2.893.592-4.074.671-1.141 1.603-.77 2.125.264.458-.653.896-1.825.432-2.574C10.11.397 9.545.134 8.991.134c-.305 0-.606.079-.859.243z"/>
        <path id="ai" d="M.568 6.825c.027 2.248 1.576 2.696 3.411 1.766.742-.375 1.449-.886 1.809-1.661.349-.75.645-2.217.124-2.967-.585-.842-1.843-.952-2.635-1.477-.644-.43-.495-.334-.449-1.15.041-.715.252-.935-.497-.994C1.367 2.538.535 4.384.568 6.825zm1.403-.438c-.956-.357-.346-1.382-.099-2.015L4.39 5.38c-.463.393-1.324 1.069-2.06 1.069-.124 0-.245-.019-.359-.062z"/>
        <path id="ak" d="M.175 8.738c-.131 1.125.086 3.234 1.467 3.595 1.258.328 2.206-1.349 2.639-2.267.192-.408.796-1.484.664-1.946-.314-1.086-.788.235-1.055.677-1.015 1.673-2.168.265-2.073-1.24.093-1.472 1.47-3.13 2.159-4.402.368-.678 1.896-2.701.54-2.864C2.92 3.034.558 5.441.175 8.738z"/>
        <path id="am" d="M.59.817C.445 1.32-.031 2.285.077 2.8c.109.519.766.807 1.137 1.103.927.742 1.673 1.644 2.089 2.769.49 1.319.552 2.804.362 4.186-.161 1.166-.853 2.415-.633 3.585.847-1.115 1.297-2.622 1.53-4.002.22-1.293.608-2.495.481-3.813-.138-1.449-.746-2.786-1.686-3.892C2.815 2.096 1.69.809.72.809a1.12 1.12 0 0 0-.13.008z"/>
        <path id="ao" d="M1.022 5.114C.549 6.491-.025 7.983.124 9.465c.093.907.708 2.539 1.898 2.411 1.272-.137 1.765-2.178 1.91-3.168.022-.15.202-1.387-.483-1.024-.391.207-.252 1.42-.705 1.726-1.067.723-1.578-1.305-1.533-2.006.091-1.383.85-2.653 1.29-3.943.196-.573 1.326-3.061.27-3.109-.662 1.547-1.2 3.17-1.749 4.762z"/>
        <path id="aq" d="M1.199 5.801C.639 7.422-.036 9.179.141 10.924c.108 1.069.833 2.99 2.235 2.839 1.497-.162 2.077-2.563 2.248-3.73.026-.177.237-1.633-.568-1.207-.46.245-.297 1.674-.832 2.034-1.256.851-1.857-1.537-1.802-2.362.106-1.628 1.001-3.124 1.518-4.642.23-.675 1.56-3.604.317-3.661-.781 1.821-1.413 3.733-2.058 5.606z"/>
        <path id="as" d="M.642 8.797c-.09 1.065.104 2.714 1.332 3.067 1.15.33 1.856-1.352 2.097-2.267.07-.267.31-1.095.033-1.325-.507-.417-.641.819-.911 1.082-1.024 1.003-1.453-.893-1.418-1.686.062-1.446.861-3.033 1.364-4.374.277-.738 1.3-2.451.138-2.736C2.298 3.176.88 5.98.642 8.797z"/>
        <path id="au" d="M2.294 2.929c-.617 1.937-2.512 5.993-.693 7.773 2.234 2.186 3.54-3.489 2.373-3.586-.257.76-.815 2.743-1.708 1.155-.569-1.012.072-2.503.359-3.521.261-.92 1.293-2.919.959-3.86C3.494.637 3.398.532 3.3.532 2.87.531 2.408 2.57 2.294 2.929z"/>
        <path id="aw" d="M1.738 1.646C1.319 2.254.495 3.633.872 4.349c.486-.173 1.241-1.137 1.847-.717.663.459.003 1.693-.289 2.208-.227.399-1.582 1.827-.867 2.097.664.248 1.775-1.448 2.086-1.875.884-1.221 1.942-3.89.282-4.937-.3-.189-.595-.277-.876-.277-.508 0-.967.292-1.317.798z"/>
        <path id="ay" d="M.693 5.967C.266 7.243-.113 8.835.439 10.133c.424.999 1.616 2.012 2.535.983.379-.425 1.517-3.377.441-3.452-.257.758-.59 2.168-1.58 1.212-.757-.732-.656-1.811-.376-2.699C1.788 5.14 3.908 1.331 2.654.713 1.995 2.459 1.283 4.196.693 5.967z"/>
        <path id="aA" d="M.723 8.34c.387 1.178 1.533 1.763 2.44.719.41-.472.639-1.153.842-1.737.245-.693.621-1.175-.129-1.533-.2.511-.447 1.769-1.255 1.609-.805-.159-.994-1.631-.826-2.238.233-.843.816-1.69 1.192-2.479.197-.414.577-.996.683-1.441.141-.594.274-.458-.344-.815C2.224 2.588-.12 5.779.723 8.34z"/>
        <path id="aC" d="M2.561.942c-.514.401-.906 2.005-1.158 2.598-.185.437-.828 1.435-.691 1.964.136.529 1.83 1.111 2.288 1.373.82.473 1.861 1.389 2.773 1.639.602.167.549.344.989-.338.221-.341.353-.737.507-1.111.377-.908.776-1.805 1.173-2.703a.785.785 0 0 0-.093-.4.804.804 0 0 0-.385-.353C7.142 3.161 3.901.872 2.813.872a.401.401 0 0 0-.252.07z"/>
        <path id="aE" d="M.649 2.987c0 1.248 1.002 2.25 2.495 2.25 1.443 0 2.462-.95 2.462-2.25 0-1.265-.967-2.303-2.462-2.303C1.703.684.649 1.704.649 2.987z"/>
        <path id="aG" d="M.099 2.987c0 1.248 1.001 2.25 2.495 2.25 1.442 0 2.462-.95 2.462-2.25 0-1.265-.968-2.303-2.462-2.303C1.153.684.099 1.704.099 2.987z"/>
        <path id="aI" d="M.052 2.432c0 1.248 1.001 2.25 2.495 2.25 1.442 0 2.461-.949 2.461-2.25C5.008 1.167 4.041.13 2.547.13 1.106.13.052 1.149.052 2.432z"/>
        <path id="aK" d="M43.768.602v20.165h-5.539c.195-2.181.284-4.395.284-6.716 0-4.52-2.534-6.609-7.069-6.609-2.426 0-6.171.595-9.141 1.455l.356 1.814c1.81-.44 4.864-.774 6.605-.774 4.24 0 4.749 2.25 4.749 6.925 0 .809-.07 2.09-.195 3.905H17.034V7.812h-4.325v12.955h-5.33v-.04c.054-.65.074-1.405.074-2.266V7.812H3.129v11.055c0 .789 0 1.44-.021 1.934-.014.511-.07 1.091-.139 1.741-.266 1.965-1.035 3.479-2.006 4.355-.28.255-.599.51-.965.765l.11 1.945c.476-.16.926-.33 1.351-.51.895-.405 1.67-.81 2.3-1.251 1.704-1.195 2.759-2.689 3.29-4.92h41.06V.602h-4.341z"/>
        <path id="aM" d="M.624 17.927h4.345V4.541L.624.197z"/>
        <path id="aO" d="M.751 2.412c0 1.249 1.002 2.25 2.495 2.25 1.442 0 2.461-.948 2.461-2.25C5.707 1.147 4.74.11 3.246.11 1.805.11.751 1.129.751 2.412z"/>
        <path id="aQ" d="M.2 2.412c0 1.249 1.002 2.25 2.495 2.25 1.442 0 2.462-.948 2.462-2.25C5.157 1.147 4.189.11 2.695.11 1.253.11.2 1.129.2 2.412z"/>
        <path id="aS" d="M.452 2.479c0 1.249 1.002 2.25 2.495 2.25 1.443 0 2.462-.949 2.462-2.25 0-1.265-.968-2.303-2.462-2.303C1.506.176.452 1.196.452 2.479z"/>
        <path id="aU" d="M11.765.42s-.018.142-.018.457c0 .229.018.581.034 1.055-3.34.738-5.73 2.022-8.051 4.342-.914.914-1.633 1.864-2.144 2.865-.598 1.178-.914 2.286-.914 3.411 0 1.054.351 1.898 1.073 2.548.825.756 1.862 1.214 3.181 1.319.387.035.774.052 1.16.052.932 0 1.864-.105 2.812-.299 1.319-.281 2.479-.755 3.498-1.441l-.403-1.477c-1.248.633-2.462.932-3.603.932-1.179 0-2.04-.351-2.55-.932-.368-.439-.563-.966-.563-1.634 0-.123 0-.247.018-.387.333-3.287 2.83-6.645 6.592-7.611.509 5.466 1.283 10.108 2.267 13.798H27.092V2.301h-4.324v12.956h-5.273C16.527 10.739 16.018 4.586 16.018.42h-4.253z"/>
        <path id="aW" d="M.608.095h4.343v22.323H.608z"/>
        <path id="aY" d="M.559 2.479c0 1.249 1.003 2.25 2.496 2.25 1.442 0 2.461-.949 2.461-2.25 0-1.265-.967-2.303-2.461-2.303C1.613.176.559 1.196.559 2.479z"/>
        <path id="ba" d="M9.29.932C3.172.932.465 3.499.465 7.964c0 2.162.913 3.726 2.532 5.238 1.968 1.881 5.08 2.848 8.05 3.216v-2.161c-3.198-.44-6.082-2.796-6.082-6.276 0-2.514 1.354-4.517 4.5-4.517h2.884v8.894c0 .791 0 1.442-.018 1.934-.018.509-.071 1.09-.142 1.739-.263 1.97-1.037 3.482-2.002 4.36-.406.369-.897.738-1.477 1.108-.582.369-1.266.703-2.04 1.002l.896 1.125a22.162 22.162 0 0 0 3.111-1.037c.898-.405 1.672-.809 2.304-1.248 1.706-1.196 2.759-2.69 3.287-4.923H26.2V1.301h-4.324v12.956h-5.273v-.035c.051-.651.069-1.407.069-2.268V.932H9.29z"/>
        <path id="bc" d="M16.017 19.931C12.097 18.662 9.439.978 2.027.922c5.782 2.519 7.739 19.589 13.99 19.009zm-1.176-5.56c-1.699-3.617-3.371-12.437-8.7-12.845 3.574 1.318 5.257 10.787 8.7 12.845zm-5.394 6.628c6.149 7.264 16.004 10.481 20.74 20.164-.375-7.182-.069-15.349-5.316-21.701-2.203-2.666-7.911-6.645-8.896-9.059-.902 2.68.161 5.356 1.344 7.624 1.535 2.939 2.176 3.804.105 4.498 7.099 2.018 1.017-5.173.135-7.754 1.586 2.222 3.964 4.027 5.74 6.255 2.398 3.011 3.268 5.776 3.834 11.896-3.7-5.447-12.291-8.854-16.331-13.831C7.2 14.651 4.878 2.825.486 1.892c3.811 5.094 4.411 13.732 8.961 19.107z"/>
        <path id="be" d="M14.59 19.931c6.249.58 8.208-16.49 13.989-19.009-7.412.056-10.071 17.74-13.989 19.009zm1.175-5.56c3.443-2.058 5.127-11.527 8.701-12.845-5.328.408-7.002 9.228-8.701 12.845zm4.038 4.72c-4.04 4.977-12.628 8.384-16.331 13.831.569-6.12 1.436-8.885 3.836-11.896 1.776-2.228 4.153-4.033 5.738-6.255-.879 2.581-6.962 9.772.136 7.753-2.07-.693-1.429-1.558.105-4.497 1.182-2.268 2.245-4.944 1.344-7.624-.984 2.414-6.693 6.392-8.897 9.059C.487 25.814.794 33.981.42 41.163c4.734-9.683 14.59-12.9 20.74-20.164 4.55-5.375 5.15-14.013 8.962-19.106-4.393.932-6.715 12.758-10.319 17.198z"/>
        <path id="bg" d="M.349 5.009c0 2.778 2.117 4.726 4.948 4.726a6.15 6.15 0 0 0 3.948-1.402V4.242H5.063v1.844h1.792V7.19c-.376.247-.843.377-1.454.377-1.441 0-2.468-1.052-2.468-2.519 0-1.416 1.014-2.519 2.325-2.519.896 0 1.546.311 2.194.857l1.481-1.779C7.971.775 6.843.282 5.245.282 2.427.282.349 2.359.349 5.009z"/>
        <path id="bi" d="M.596 5.009c0 2.636 2.078 4.726 4.882 4.726 2.806 0 4.909-2.116 4.909-4.726 0-2.636-2.078-4.727-4.884-4.727C2.7.282.596 2.399.596 5.009zm2.584 0c0-1.338.921-2.454 2.298-2.454 1.389 0 2.338 1.143 2.338 2.454 0 1.337-.923 2.453-2.313 2.453-1.375 0-2.323-1.142-2.323-2.453z"/>
        <path id="bk" d="M7.594.464L5.529 6.216 3.465.464H.646L4.334 9.62h2.338L10.361.464z"/>
        <path id="bm" d="M.502.464v9.089h7.376V7.411H2.995V5.97h4.364V3.983H2.995V2.606h4.818V.464z"/>
        <path id="bo" d="M.424.464v9.089h2.519V6.801h1.104l1.83 2.752h2.909L6.617 6.385c1.13-.481 1.871-1.402 1.871-2.792 0-.922-.273-1.624-.807-2.155C7.072.827 6.112.464 4.721.464H.424zm2.519 2.182h1.648c.845 0 1.364.363 1.364 1.077 0 .688-.493 1.104-1.351 1.104H2.943V2.646z"/>
        <path id="bq" d="M6.111.464v4.804L2.37.464H.019v9.089h2.493V4.567l3.882 4.986h2.209V.464z"/>
        <path id="bs" d="M7.471.464L5.302 3.983 3.135.464H.473v9.089h2.468V4.359l2.311 3.533h.05l2.326-3.559v5.22h2.505V.464z"/>
        <path id="bu" d="M.004.464v9.089H7.38V7.411H2.497V5.97H6.86V3.983H2.497V2.606h4.817V.464z"/>
        <path id="bw" d="M7.016.464v4.804L3.275.464H.924v9.089h2.493V4.567l3.884 4.986h2.207V.464z"/>
        <path id="by" d="M.872.464v2.207h2.726v6.882h2.519V2.671h2.727V.464z"/>
        <path id="bA" d="M.494 5.009c0 2.636 2.077 4.726 4.882 4.726 2.805 0 4.908-2.116 4.908-4.726 0-2.636-2.078-4.727-4.883-4.727C2.598.282.494 2.399.494 5.009zm2.584 0c0-1.338.921-2.454 2.298-2.454 1.39 0 2.337 1.143 2.337 2.454 0 1.337-.922 2.453-2.312 2.453-1.376 0-2.323-1.142-2.323-2.453z"/>
        <path id="bC" d="M.855.464v9.089h2.52V6.308h4.299V4.217H3.375V2.671h4.751V.464z"/>
        <path id="bE" d="M5.917.464V5.58c0 1.273-.661 1.87-1.674 1.87s-1.674-.624-1.674-1.934V.464H.01v5.103c0 2.843 1.623 4.155 4.207 4.155 2.584 0 4.26-1.285 4.26-4.22V.464h-2.56z"/>
        <path id="bG" d="M.658.021h2.571v2.532H.658z"/>
        <path id="bI" d="M3.865.398L-.004 9.553h2.65l.648-1.623H6.8l.661 1.623h2.702L6.293.398H3.865zM5.06 3.386L6.073 5.97H4.034L5.06 3.386z"/>
        <path id="bK" d="M.93.021H3.5v2.532H.93z"/>
        <path id="bM" d="M.292 5.009c0 2.636 2.078 4.726 4.884 4.726a5.05 5.05 0 0 0 2.766-.805l1 .897 1.272-1.416-.935-.792c.52-.741.805-1.649.805-2.61 0-2.636-2.078-4.727-4.883-4.727C2.398.282.292 2.399.292 5.009zm2.585.026c0-1.337.923-2.48 2.299-2.48 1.402 0 2.351 1.155 2.351 2.48 0 .338-.053.636-.157.908L6.137 4.827 4.864 6.255l1.259 1.078a2.583 2.583 0 0 1-.922.169c-1.389 0-2.324-1.156-2.324-2.467z"/>
        <path id="bO" d="M.94 5.009c0 2.74 2.092 4.726 4.688 4.726 2.013 0 3.169-.87 4.027-2.05L7.758 6.333c-.546.662-1.104 1.104-2.052 1.104-1.272 0-2.169-1.065-2.169-2.428 0-1.351.897-2.428 2.169-2.428.87 0 1.481.402 2 1.051l1.843-1.428C8.744 1.087 7.589.282 5.732.282 2.979.282.94 2.359.94 5.009z"/>
        <path id="bQ" d="M6.744.464v3.402H3.51V.464H.991v9.089H3.51V6.1h3.234v3.453h2.519V.464z"/>
        <path id="bS" d="M4.275.398L.406 9.553h2.649l.649-1.623H7.21l.662 1.623h2.701L6.703.398H4.275zM5.47 3.386L6.482 5.97H4.444L5.47 3.386z"/>
        <path id="bU" d="M.716.464v9.089h2.52V6.801H4.34l1.829 2.752h2.909L6.91 6.385c1.13-.481 1.87-1.402 1.87-2.792 0-.922-.272-1.624-.805-2.155C7.366.827 6.404.464 5.015.464H.716zm2.52 2.182h1.648c.845 0 1.364.363 1.364 1.077 0 .688-.494 1.104-1.35 1.104H3.236V2.646z"/>
        <path id="bW" d="M.364.464h2.532v9.09H.364z"/>
        <path id="bY" d="M.313.464v2.207h2.726v6.882h2.52V2.671h2.726V.464z"/>
        <path id="ca" d="M7.439.464L5.556 3.775 3.687.464H.818l3.454 5.688v3.401h2.532V6.112L10.258.464z"/>
        <path id="cc" d="M4.219.574L.062 10.091h1.7l.973-2.281h4.468l.958 2.281h1.755L5.758.574H4.219zm.742 1.984l1.634 3.78H3.342l1.619-3.78z"/>
        <path id="ce" d="M.442.236h1.634v9.855H.442z"/>
        <path id="cg" d="M.258.236v9.855h1.633V8.052l.999-1.04 2.147 3.079h1.891l-2.93-4.226 2.834-2.902H4.849l-2.958 3.16V.236z"/>
        <path id="ci" d="M.115.236v9.855h1.634V6.068c0-1.107.661-1.768 1.606-1.768.972 0 1.525.635 1.525 1.742v4.049h1.634V5.555c0-1.66-.931-2.74-2.537-2.74-1.108 0-1.769.581-2.228 1.255V.236H.115z"/>
        <path id="ck" d="M.62 1.448l.445 1.31c.648-.269 1.242-.445 2.04-.445 1.132 0 1.754.541 1.754 1.526v.135a5.984 5.984 0 0 0-1.97-.298c-1.662 0-2.89.756-2.89 2.335 0 1.458 1.189 2.228 2.538 2.228 1.08 0 1.822-.445 2.307-1.026v.878h1.62V3.865c0-1.903-1.026-3.01-3.13-3.01-1.163 0-1.932.243-2.714.593zm.999 4.51c0-.715.607-1.135 1.633-1.135.635 0 1.214.123 1.634.285v.405c0 .89-.81 1.498-1.89 1.498-.77 0-1.377-.378-1.377-1.053z"/>
        <path id="cm" d="M.435 1.87h1.756V.318H.435V1.87zm.069 8.221h1.633V2.964H.504v7.127z"/>
        <path id="co" d="M1.905 2.569V.963H.27v7.128h1.635V5.378c0-1.891.999-2.822 2.428-2.822h.094V.828L4.298.826c-1.182 0-1.965.714-2.393 1.743z"/>
        <path id="cq" d="M.085.641v9.45h1.66V7.053h1.877c2.079 0 3.779-1.107 3.779-3.226 0-1.93-1.391-3.186-3.59-3.186H.085zm1.66 1.512h1.93c1.242 0 2.038.581 2.038 1.687 0 1.014-.782 1.715-2.038 1.715h-1.93V2.153z"/>
        <path id="cs" d="M.522 4.541c0 2.052 1.606 3.712 3.779 3.712 2.201 0 3.821-1.687 3.821-3.712 0-2.065-1.606-3.726-3.793-3.726C2.142.815.522 2.502.522 4.541zm1.633 0c0-1.269.837-2.295 2.146-2.295 1.283 0 2.187 1.039 2.187 2.295 0 1.255-.837 2.295-2.159 2.295-1.269 0-2.174-1.054-2.174-2.295z"/>
        <path id="cu" d="M2.417 2.569V.963H.783v7.128h1.634V5.378c0-1.891.999-2.822 2.43-2.822h.093V.828L4.811.826c-1.182 0-1.965.714-2.394 1.743z"/>
        <path id="cw" d="M1.696.005v1.958H.791v1.403h.905V7.12c0 1.566.85 2.092 2.052 2.092.608 0 1.067-.135 1.471-.364V7.511a2.193 2.193 0 0 1-1.012.244c-.554 0-.877-.257-.877-.892V3.366h1.917V1.963H3.33V.005H1.696z"/>
        <path id="cy" d="M1.028 1.448l.445 1.31c.648-.269 1.242-.445 2.04-.445 1.133 0 1.755.541 1.755 1.526v.135a5.995 5.995 0 0 0-1.971-.298c-1.662 0-2.889.756-2.889 2.335 0 1.458 1.188 2.228 2.537 2.228 1.081 0 1.822-.445 2.309-1.026v.878h1.619V3.865c0-1.903-1.026-3.01-3.131-3.01-1.162 0-1.93.243-2.714.593zm.999 4.51c0-.715.607-1.135 1.633-1.135.635 0 1.216.123 1.634.285v.405c0 .89-.81 1.498-1.89 1.498-.77 0-1.377-.378-1.377-1.053z"/>
        <path id="cA" d="M.912.236h1.634v9.855H.912z"/>
    </defs>
    <g fill="none" fill-rule="evenodd">
        <g transform="translate(124 123)">
            <mask id="b" fill="#fff">
                <use xlink:href="#a"/>
            </mask>
            <path d="M.178 11.638h4.715V6.922H.178v4.716zm5.894 0h4.715V6.922H6.072v4.716zm0-6.002h4.715V.92H6.072v4.716zm-5.894 0h4.715V.92H.178v4.716z" mask="url(#b)"/>
        </g>
        <g transform="translate(124 123)">
            <mask id="d" fill="#fff">
                <use xlink:href="#c"/>
            </mask>
            <path d="M6.072 5.636h4.715V.92H6.072v4.716zm-5.894 0h4.714V.92H.178v4.716zm5.894 6.001h4.715V6.922H6.072v4.715zm-5.894 0h4.714V6.922H.178v4.715z" mask="url(#d)"/>
        </g>
        <g transform="translate(124 123)">
            <mask id="g" fill="#fff">
                <use xlink:href="#e"/>
            </mask>
            <path fill="url(#f)" d="M6.072 5.636h4.715V.92H6.072v4.716zm-5.894 0h4.714V.92H.178v4.716zm5.894 6.001h4.715V6.922H6.072v4.715zm-5.894 0h4.714V6.922H.178v4.715z" mask="url(#g)"/>
        </g>
        <g transform="translate(107 110)">
            <mask id="i" fill="#fff">
                <use xlink:href="#h"/>
            </mask>
            <path d="M.567 14.575h4.929L22.484 3.866l16.984 10.709h4.931L22.484.758.567 14.575zm34.386 9.257c-1.426 3.068-2.871 4.032-5.471 6.326-3.063 2.705-5.308 4.895-6.998 7.817-1.694-2.922-3.939-5.112-7.002-7.817-2.565-2.263-4.051-3.28-5.471-6.327v-9.674l-2.347 1.479v8.7c1.686 3.858 3.231 4.904 6.265 7.581 4.301 3.799 6.862 6.351 8.555 12.131 1.689-5.78 4.25-8.332 8.551-12.131 3.062-2.702 4.582-3.726 6.264-7.581v-8.7l-2.346-1.479v9.675z" mask="url(#i)"/>
        </g>
        <g transform="translate(107 110)">
            <mask id="k" fill="#fff">
                <use xlink:href="#j"/>
            </mask>
            <path d="M.567 14.575h4.929L22.484 3.866l16.984 10.709h4.931L22.484.758.567 14.575zm34.386 9.257c-1.426 3.068-2.871 4.032-5.471 6.326-3.063 2.705-5.308 4.895-6.998 7.817-1.694-2.922-3.939-5.112-7.002-7.817-2.565-2.263-4.051-3.28-5.471-6.327v-9.674l-2.347 1.479v8.7c1.686 3.858 3.231 4.904 6.265 7.581 4.301 3.799 6.862 6.351 8.555 12.131 1.689-5.78 4.25-8.332 8.551-12.131 3.062-2.702 4.582-3.726 6.264-7.581v-8.7l-2.346-1.479v9.675z" mask="url(#k)"/>
        </g>
        <g transform="translate(107 110)">
            <mask id="n" fill="#fff">
                <use xlink:href="#l"/>
            </mask>
            <path fill="url(#m)" d="M.567 14.575h4.929L22.484 3.866l16.984 10.709h4.931L22.484.758.567 14.575zm34.386 9.257c-1.426 3.068-2.871 4.032-5.471 6.326-3.063 2.705-5.308 4.895-6.998 7.817-1.694-2.922-3.939-5.112-7.002-7.817-2.565-2.263-4.051-3.28-5.471-6.327v-9.674l-2.347 1.479v8.7c1.686 3.858 3.231 4.904 6.265 7.581 4.301 3.799 6.862 6.351 8.555 12.131 1.689-5.78 4.25-8.332 8.551-12.131 3.062-2.702 4.582-3.726 6.264-7.581v-8.7l-2.346-1.479v9.675z" mask="url(#n)"/>
        </g>
        <g transform="translate(173)">
            <mask id="p" fill="#fff">
                <use xlink:href="#o"/>
            </mask>
            <path fill="#E5332F" d="M-4.545 87.701h96.152V-4.5H-4.545z" mask="url(#p)"/>
        </g>
        <g transform="translate(0 2)">
            <mask id="r" fill="#fff">
                <use xlink:href="#q"/>
            </mask>
            <path fill="#E5332F" d="M-5 85.659h117.706V-4.426H-5z" mask="url(#r)"/>
        </g>
        <g transform="translate(78 47)">
            <mask id="t" fill="#fff">
                <use xlink:href="#s"/>
            </mask>
            <path fill="#E5332F" d="M-4.058 44.152h120.843V-4.027H-4.058z" mask="url(#t)"/>
        </g>
        <g transform="translate(139 2)">
            <mask id="v" fill="#fff">
                <use xlink:href="#u"/>
            </mask>
            <path fill="#E5332F" d="M-4.272 67.626h35.809V-4.515H-4.272z" mask="url(#v)"/>
        </g>
        <g transform="translate(110 2)">
            <mask id="x" fill="#fff">
                <use xlink:href="#w"/>
            </mask>
            <path fill="#E5332F" d="M-4.009 68.288h19.628V-4.136H-4.009z" mask="url(#x)"/>
        </g>
        <g transform="translate(57 9)">
            <mask id="z" fill="#fff">
                <use xlink:href="#y"/>
            </mask>
            <path fill="#E5332F" d="M-4.365 17.013h26.896V-4.715H-4.365z" mask="url(#z)"/>
        </g>
        <g transform="translate(223 18)">
            <mask id="B" fill="#fff">
                <use xlink:href="#A"/>
            </mask>
            <path fill="#E5332F" d="M-4.886 29.655h36.539V-4.259H-4.886z" mask="url(#B)"/>
        </g>
        <g transform="translate(169)">
            <mask id="D" fill="#fff">
                <use xlink:href="#C"/>
            </mask>
            <path fill="#E5332F" d="M-4.066 32.624h55.959V-4.454H-4.066z" mask="url(#D)"/>
        </g>
        <g transform="translate(83 6)">
            <mask id="F" fill="#fff">
                <use xlink:href="#E"/>
            </mask>
            <path fill="#E5332F" d="M-4.536 22.631h20.427v-26.74H-4.536z" mask="url(#F)"/>
        </g>
        <g transform="translate(208 16)">
            <mask id="H" fill="#fff">
                <use xlink:href="#G"/>
            </mask>
            <path fill="#E5332F" d="M-4.913 17.529h28.092V-4.409H-4.913z" mask="url(#H)"/>
        </g>
        <g transform="translate(64 71)">
            <mask id="J" fill="#fff">
                <use xlink:href="#I"/>
            </mask>
            <path fill="#E5332F" d="M-4.723 14.453h25.752V-4.629H-4.723z" mask="url(#J)"/>
        </g>
        <g transform="translate(38 63)">
            <mask id="L" fill="#fff">
                <use xlink:href="#K"/>
            </mask>
            <path fill="#E5332F" d="M-4.562 15.604h24.796V-4.365H-4.562z" mask="url(#L)"/>
        </g>
        <g transform="translate(152 32)">
            <mask id="N" fill="#fff">
                <use xlink:href="#M"/>
            </mask>
            <path fill="#E5332F" d="M-4.331 15.133h25.003V-4.094H-4.331z" mask="url(#N)"/>
        </g>
        <g transform="translate(2 21)">
            <mask id="P" fill="#fff">
                <use xlink:href="#O"/>
            </mask>
            <path fill="#E5332F" d="M-4.579 25.111h16.674V-4.958H-4.579z" mask="url(#P)"/>
        </g>
        <g transform="translate(177 24)">
            <mask id="R" fill="#fff">
                <use xlink:href="#Q"/>
            </mask>
            <path fill="#E5332F" d="M-4.416 27.054h16.381V-4.373H-4.416z" mask="url(#R)"/>
        </g>
        <g transform="translate(123 33)">
            <mask id="T" fill="#fff">
                <use xlink:href="#S"/>
            </mask>
            <path fill="#E5332F" d="M-4.834 18.703h28.816V-4.103H-4.834z" mask="url(#T)"/>
        </g>
        <g transform="translate(129 22)">
            <mask id="V" fill="#fff">
                <use xlink:href="#U"/>
            </mask>
            <path fill="#E5332F" d="M-4.796 14.934h19.797V-4.382H-4.796z" mask="url(#V)"/>
        </g>
        <g transform="translate(236 65)">
            <mask id="X" fill="#fff">
                <use xlink:href="#W"/>
            </mask>
            <path fill="#E5332F" d="M-4.631 15.873h22.185V-4.316H-4.631z" mask="url(#X)"/>
        </g>
        <g transform="translate(69 23)">
            <mask id="Z" fill="#fff">
                <use xlink:href="#Y"/>
            </mask>
            <path fill="#E5332F" d="M-4.475 16.299h21.056V-4.986H-4.475z" mask="url(#Z)"/>
        </g>
        <g transform="translate(126 3)">
            <mask id="ab" fill="#fff">
                <use xlink:href="#aa"/>
            </mask>
            <path fill="#E5332F" d="M-4.382 14.918h20.113V-4.879H-4.382z" mask="url(#ab)"/>
        </g>
        <g transform="translate(33 13)">
            <mask id="ad" fill="#fff">
                <use xlink:href="#ac"/>
            </mask>
            <path fill="#E5332F" d="M-4.231 16.247h19.929V-4.642H-4.231z" mask="url(#ad)"/>
        </g>
        <g transform="translate(173 2)">
            <mask id="af" fill="#fff">
                <use xlink:href="#ae"/>
            </mask>
            <path fill="#E5332F" d="M-4.107 16.231h20.251V-4.123H-4.107z" mask="url(#af)"/>
        </g>
        <g transform="translate(184 36)">
            <mask id="ah" fill="#fff">
                <use xlink:href="#ag"/>
            </mask>
            <path fill="#E5332F" d="M-4.078 14.237h19.695V-4.867H-4.078z" mask="url(#ah)"/>
        </g>
        <g transform="translate(9 49)">
            <mask id="aj" fill="#fff">
                <use xlink:href="#ai"/>
            </mask>
            <path fill="#E5332F" d="M-4.434 14.046h15.628V-4.659H-4.434z" mask="url(#aj)"/>
        </g>
        <g transform="translate(87 66)">
            <mask id="al" fill="#fff">
                <use xlink:href="#ak"/>
            </mask>
            <path fill="#E5332F" d="M-4.858 17.375h14.926V-4.709H-4.858z" mask="url(#al)"/>
        </g>
        <g transform="translate(210 65)">
            <mask id="an" fill="#fff">
                <use xlink:href="#am"/>
            </mask>
            <path fill="#E5332F" d="M-4.939 19.443h15.008V-4.191H-4.939z" mask="url(#an)"/>
        </g>
        <g transform="translate(68 38)">
            <mask id="ap" fill="#fff">
                <use xlink:href="#ao"/>
            </mask>
            <path fill="#E5332F" d="M-4.899 16.883H8.97V-4.648H-4.899z" mask="url(#ap)"/>
        </g>
        <g transform="translate(11 72)">
            <mask id="ar" fill="#fff">
                <use xlink:href="#aq"/>
            </mask>
            <path fill="#E5332F" d="M-4.888 18.771H9.668V-4.805H-4.888z" mask="url(#ar)"/>
        </g>
        <g transform="translate(107 23)">
            <mask id="at" fill="#fff">
                <use xlink:href="#as"/>
            </mask>
            <path fill="#E5332F" d="M-4.377 16.906H9.234V-4.443H-4.377z" mask="url(#at)"/>
        </g>
        <g transform="translate(121 15)">
            <mask id="av" fill="#fff">
                <use xlink:href="#au"/>
            </mask>
            <path fill="#E5332F" d="M-4.168 16.203H9.41V-4.468H-4.168z" mask="url(#av)"/>
        </g>
        <g transform="translate(24 70)">
            <mask id="ax" fill="#fff">
                <use xlink:href="#aw"/>
            </mask>
            <path fill="#E5332F" d="M-4.224 12.961H9.804V-4.152H-4.224z" mask="url(#ax)"/>
        </g>
        <g transform="translate(215 31)">
            <mask id="az" fill="#fff">
                <use xlink:href="#ay"/>
            </mask>
            <path fill="#E5332F" d="M-4.836 16.546H8.866V-4.287H-4.836z" mask="url(#az)"/>
        </g>
        <g transform="translate(181 64)">
            <mask id="aB" fill="#fff">
                <use xlink:href="#aA"/>
            </mask>
            <path fill="#E5332F" d="M-4.456 14.601H9.319V-4.576H-4.456z" mask="url(#aB)"/>
        </g>
        <g transform="translate(24 43)">
            <mask id="aD" fill="#fff">
                <use xlink:href="#aC"/>
            </mask>
            <path fill="#E5332F" d="M-4.308 13.668h17.75V-4.127h-17.75z" mask="url(#aD)"/>
        </g>
        <g transform="translate(74 155)">
            <mask id="aF" fill="#fff">
                <use xlink:href="#aE"/>
            </mask>
            <path fill="#231F20" d="M-4.351 10.237h14.956V-4.316H-4.351z" mask="url(#aF)"/>
        </g>
        <g transform="translate(80 155)">
            <mask id="aH" fill="#fff">
                <use xlink:href="#aG"/>
            </mask>
            <path fill="#231F20" d="M-4.901 10.237h14.957V-4.316H-4.901z" mask="url(#aH)"/>
        </g>
        <g transform="translate(92 132)">
            <mask id="aJ" fill="#fff">
                <use xlink:href="#aI"/>
            </mask>
            <path fill="#231F20" d="M-4.948 9.682h14.956V-4.87H-4.948z" mask="url(#aJ)"/>
        </g>
        <g transform="translate(65 131)">
            <mask id="aL" fill="#fff">
                <use xlink:href="#aK"/>
            </mask>
            <path fill="#231F20" d="M-5.002 34.607h58.111V-4.398H-5.002z" mask="url(#aL)"/>
        </g>
        <g transform="translate(116 136)">
            <mask id="aN" fill="#fff">
                <use xlink:href="#aM"/>
            </mask>
            <path fill="#231F20" d="M-4.376 22.927H9.969v-27.73H-4.376z" mask="url(#aN)"/>
        </g>
        <g transform="translate(137 131)">
            <mask id="aP" fill="#fff">
                <use xlink:href="#aO"/>
            </mask>
            <path fill="#231F20" d="M-4.249 9.663h14.956V-4.89H-4.249z" mask="url(#aP)"/>
        </g>
        <g transform="translate(143 131)">
            <mask id="aR" fill="#fff">
                <use xlink:href="#aQ"/>
            </mask>
            <path fill="#231F20" d="M-4.801 9.663h14.958V-4.89H-4.801z" mask="url(#aR)"/>
        </g>
        <g transform="translate(155 156)">
            <mask id="aT" fill="#fff">
                <use xlink:href="#aS"/>
            </mask>
            <path fill="#231F20" d="M-4.548 9.729h14.957V-4.824H-4.548z" mask="url(#aT)"/>
        </g>
        <g transform="translate(133 137)">
            <mask id="aV" fill="#fff">
                <use xlink:href="#aU"/>
            </mask>
            <path fill="#231F20" d="M-4.328 22.418h36.42V-4.58h-36.42z" mask="url(#aV)"/>
        </g>
        <g transform="translate(163 132)">
            <mask id="aX" fill="#fff">
                <use xlink:href="#aW"/>
            </mask>
            <path fill="#231F20" d="M-4.392 27.419H9.95V-4.905H-4.392z" mask="url(#aX)"/>
        </g>
        <g transform="translate(192 156)">
            <mask id="aZ" fill="#fff">
                <use xlink:href="#aY"/>
            </mask>
            <path fill="#231F20" d="M-4.44 9.729h14.956V-4.824H-4.44z" mask="url(#aZ)"/>
        </g>
        <g transform="translate(171 138)">
            <mask id="bb" fill="#fff">
                <use xlink:href="#ba"/>
            </mask>
            <path fill="#231F20" d="M-4.535 28.625h35.734V-4.068H-4.535z" mask="url(#bb)"/>
        </g>
        <g transform="translate(28 129)">
            <mask id="bd" fill="#fff">
                <use xlink:href="#bc"/>
            </mask>
            <path fill="#E5332F" d="M-4.514 46.162h39.7v-50.24h-39.7z" mask="url(#bd)"/>
        </g>
        <g transform="translate(202 129)">
            <mask id="bf" fill="#fff">
                <use xlink:href="#be"/>
            </mask>
            <path fill="#E5332F" d="M-4.58 46.163h39.702V-4.078H-4.58z" mask="url(#bf)"/>
        </g>
        <g transform="translate(14 96)">
            <mask id="bh" fill="#fff">
                <use xlink:href="#bg"/>
            </mask>
            <path fill="#231F20" d="M-4.65 14.735h18.896V-4.718H-4.65z" mask="url(#bh)"/>
        </g>
        <g transform="translate(24 96)">
            <mask id="bj" fill="#fff">
                <use xlink:href="#bi"/>
            </mask>
            <path fill="#231F20" d="M-4.404 14.735h19.791V-4.718H-4.404z" mask="url(#bj)"/>
        </g>
        <g transform="translate(34 96)">
            <mask id="bl" fill="#fff">
                <use xlink:href="#bk"/>
            </mask>
            <path fill="#231F20" d="M-4.354 14.619H15.36V-4.536H-4.354z" mask="url(#bl)"/>
        </g>
        <g transform="translate(45 96)">
            <mask id="bn" fill="#fff">
                <use xlink:href="#bm"/>
            </mask>
            <path fill="#231F20" d="M-4.498 14.553h17.376V-4.536H-4.498z" mask="url(#bn)"/>
        </g>
        <g transform="translate(54 96)">
            <mask id="bp" fill="#fff">
                <use xlink:href="#bo"/>
            </mask>
            <path fill="#231F20" d="M-4.576 14.553h18.361V-4.536H-4.576z" mask="url(#bp)"/>
        </g>
        <g transform="translate(64 96)">
            <mask id="br" fill="#fff">
                <use xlink:href="#bq"/>
            </mask>
            <path fill="#231F20" d="M-4.98 14.553h18.583V-4.536H-4.98z" mask="url(#br)"/>
        </g>
        <g transform="translate(74 96)">
            <mask id="bt" fill="#fff">
                <use xlink:href="#bs"/>
            </mask>
            <path fill="#231F20" d="M-4.527 14.553h19.661V-4.536H-4.527z" mask="url(#bt)"/>
        </g>
        <g transform="translate(86 96)">
            <mask id="bv" fill="#fff">
                <use xlink:href="#bu"/>
            </mask>
            <path fill="#231F20" d="M-4.996 14.553H12.38V-4.536H-4.996z" mask="url(#bv)"/>
        </g>
        <g transform="translate(94 96)">
            <mask id="bx" fill="#fff">
                <use xlink:href="#bw"/>
            </mask>
            <path fill="#231F20" d="M-4.075 14.553h18.583V-4.536H-4.075z" mask="url(#bx)"/>
        </g>
        <g transform="translate(104 96)">
            <mask id="bz" fill="#fff">
                <use xlink:href="#by"/>
            </mask>
            <path fill="#231F20" d="M-4.128 14.553h17.973V-4.536H-4.128z" mask="url(#bz)"/>
        </g>
        <g transform="translate(117 96)">
            <mask id="bB" fill="#fff">
                <use xlink:href="#bA"/>
            </mask>
            <path fill="#231F20" d="M-4.506 14.735h19.79V-4.718h-19.79z" mask="url(#bB)"/>
        </g>
        <g transform="translate(128 96)">
            <mask id="bD" fill="#fff">
                <use xlink:href="#bC"/>
            </mask>
            <path fill="#231F20" d="M-4.145 14.553h17.271V-4.536H-4.145z" mask="url(#bD)"/>
        </g>
        <g transform="translate(141 96)">
            <mask id="bF" fill="#fff">
                <use xlink:href="#bE"/>
            </mask>
            <path fill="#231F20" d="M-4.99 14.722h18.468V-4.536H-4.99z" mask="url(#bF)"/>
        </g>
        <g transform="translate(150 103)">
            <mask id="bH" fill="#fff">
                <use xlink:href="#bG"/>
            </mask>
            <path fill="#231F20" d="M-4.342 7.553H8.229V-4.979H-4.342z" mask="url(#bH)"/>
        </g>
        <g transform="translate(154 96)">
            <mask id="bJ" fill="#fff">
                <use xlink:href="#bI"/>
            </mask>
            <path fill="#231F20" d="M-5.004 14.553h20.167V-4.602H-5.004z" mask="url(#bJ)"/>
        </g>
        <g transform="translate(164 103)">
            <mask id="bL" fill="#fff">
                <use xlink:href="#bK"/>
            </mask>
            <path fill="#231F20" d="M-4.07 7.553H8.501V-4.979H-4.07z" mask="url(#bL)"/>
        </g>
        <g transform="translate(168 96)">
            <mask id="bN" fill="#fff">
                <use xlink:href="#bM"/>
            </mask>
            <path fill="#231F20" d="M-4.707 14.826h19.921V-4.718H-4.707z" mask="url(#bN)"/>
        </g>
        <g transform="translate(182 96)">
            <mask id="bP" fill="#fff">
                <use xlink:href="#bO"/>
            </mask>
            <path fill="#231F20" d="M-4.06 14.735h18.714V-4.718H-4.06z" mask="url(#bP)"/>
        </g>
        <g transform="translate(192 96)">
            <mask id="bR" fill="#fff">
                <use xlink:href="#bQ"/>
            </mask>
            <path fill="#231F20" d="M-4.009 14.553h18.271V-4.536H-4.009z" mask="url(#bR)"/>
        </g>
        <g transform="translate(202 96)">
            <mask id="bT" fill="#fff">
                <use xlink:href="#bS"/>
            </mask>
            <path fill="#231F20" d="M-4.594 14.553h20.167V-4.602H-4.594z" mask="url(#bT)"/>
        </g>
        <g transform="translate(213 96)">
            <mask id="bV" fill="#fff">
                <use xlink:href="#bU"/>
            </mask>
            <path fill="#231F20" d="M-4.283 14.553h18.361V-4.536H-4.283z" mask="url(#bV)"/>
        </g>
        <g transform="translate(223 96)">
            <mask id="bX" fill="#fff">
                <use xlink:href="#bW"/>
            </mask>
            <path fill="#231F20" d="M-4.636 14.554H7.896v-19.09H-4.636z" mask="url(#bX)"/>
        </g>
        <g transform="translate(227 96)">
            <mask id="bZ" fill="#fff">
                <use xlink:href="#bY"/>
            </mask>
            <path fill="#231F20" d="M-4.687 14.553h17.973V-4.536H-4.687z" mask="url(#bZ)"/>
        </g>
        <g transform="translate(235 96)">
            <mask id="cb" fill="#fff">
                <use xlink:href="#ca"/>
            </mask>
            <path fill="#231F20" d="M-4.183 14.553h19.44V-4.536h-19.44z" mask="url(#cb)"/>
        </g>
        <g transform="translate(82 165)">
            <mask id="cd" fill="#fff">
                <use xlink:href="#cc"/>
            </mask>
            <path fill="#000" d="M-4.938 15.091h19.854V-4.426H-4.938z" mask="url(#cd)"/>
        </g>
        <g transform="translate(93 165)">
            <mask id="cf" fill="#fff">
                <use xlink:href="#ce"/>
            </mask>
            <path fill="#000" d="M-4.558 15.091H7.076V-4.764H-4.558z" mask="url(#cf)"/>
        </g>
        <g transform="translate(101 165)">
            <mask id="ch" fill="#fff">
                <use xlink:href="#cg"/>
            </mask>
            <path fill="#000" d="M-4.742 15.091h16.67V-4.764h-16.67z" mask="url(#ch)"/>
        </g>
        <g transform="translate(109 165)">
            <mask id="cj" fill="#fff">
                <use xlink:href="#ci"/>
            </mask>
            <path fill="#000" d="M-4.885 15.091h16.398V-4.764H-4.885z" mask="url(#cj)"/>
        </g>
        <g transform="translate(117 167)">
            <mask id="cl" fill="#fff">
                <use xlink:href="#ck"/>
            </mask>
            <path fill="#000" d="M-5.001 13.239h16.466V-4.145H-5.001z" mask="url(#cl)"/>
        </g>
        <g transform="translate(125 165)">
            <mask id="cn" fill="#fff">
                <use xlink:href="#cm"/>
            </mask>
            <path fill="#000" d="M-4.564 15.09H7.192V-4.683H-4.564z" mask="url(#cn)"/>
        </g>
        <g transform="translate(129 167)">
            <mask id="cp" fill="#fff">
                <use xlink:href="#co"/>
            </mask>
            <path fill="#000" d="M-4.729 13.091H9.428V-4.175H-4.729z" mask="url(#cp)"/>
        </g>
        <g transform="translate(139 165)">
            <mask id="cr" fill="#fff">
                <use xlink:href="#cq"/>
            </mask>
            <path fill="#000" d="M-4.915 15.091h17.316v-19.45H-4.915z" mask="url(#cr)"/>
        </g>
        <g transform="translate(147 167)">
            <mask id="ct" fill="#fff">
                <use xlink:href="#cs"/>
            </mask>
            <path fill="#000" d="M-4.478 13.253h17.6V-4.185h-17.6z" mask="url(#ct)"/>
        </g>
        <g transform="translate(156 167)">
            <mask id="cv" fill="#fff">
                <use xlink:href="#cu"/>
            </mask>
            <path fill="#000" d="M-4.217 13.091H9.94V-4.175H-4.217z" mask="url(#cv)"/>
        </g>
        <g transform="translate(161 166)">
            <mask id="cx" fill="#fff">
                <use xlink:href="#cw"/>
            </mask>
            <path fill="#000" d="M-4.209 14.212h14.456V-4.995H-4.209z" mask="url(#cx)"/>
        </g>
        <g transform="translate(167 167)">
            <mask id="cz" fill="#fff">
                <use xlink:href="#cy"/>
            </mask>
            <path fill="#000" d="M-4.592 13.239h16.465V-4.145H-4.592z" mask="url(#cz)"/>
        </g>
        <g transform="translate(175 165)">
            <mask id="cB" fill="#fff">
                <use xlink:href="#cA"/>
            </mask>
            <path fill="#000" d="M-4.088 15.091H7.546V-4.764H-4.088z" mask="url(#cB)"/>
        </g>
        <path fill="#231F20" d="M116.5 153.5h4.469v-22H116.5z"/>
    </g>
</svg>
