<svg xmlns="http://www.w3.org/2000/svg" width="22" height="27" viewBox="0 0 22 27">
    <path fill="#FFF" fill-rule="nonzero" d="M6.085 10.806V8.202c0-2.876 2.29-5.208 5.115-5.208s5.115 2.332 5.115 5.208h2.558C18.873 3.888 15.437.39 11.2.39S3.528 3.888 3.528 8.202v2.604C2.115 10.806.97 11.972.97 13.41v10.416c0 1.438 1.145 2.604 2.558 2.604h15.345c1.412 0 2.557-1.166 2.557-2.604V13.41c0-1.438-1.145-2.604-2.557-2.604H6.085zm8.951 7.161c0-.36.287-.651.64-.651h1.278c.353 0 .64.291.64.651v1.302c0 .36-.287.651-.64.651h-1.278a.645.645 0 0 1-.64-.651v-1.302zm-5.115 0c0-.36.287-.651.64-.651h1.278c.353 0 .64.291.64.651v1.302c0 .36-.287.651-.64.651h-1.278a.645.645 0 0 1-.64-.651v-1.302zm-5.115 1.302v-1.302c0-.36.287-.651.64-.651h1.278c.353 0 .64.291.64.651v1.302c0 .36-.287.651-.64.651H5.446a.645.645 0 0 1-.64-.651z"/>
</svg>
