<svg xmlns="http://www.w3.org/2000/svg" width="21" height="21" viewBox="0 0 21 21">
    <g fill="none" fill-rule="evenodd">
        <path d="M-3-3h26.4v26.4H-3z"/>
        <path fill="#124A6B" fill-rule="nonzero" d="M19 14.05c-1.375 0-2.695-.22-3.927-.627a1.123 1.123 0 0 0-1.122.264l-2.42 2.42a16.55 16.55 0 0 1-7.249-7.249l2.42-2.431c.308-.286.396-.715.275-1.1A12.496 12.496 0 0 1 6.35 1.4c0-.605-.495-1.1-1.1-1.1H1.4C.795.3.3.795.3 1.4.3 11.729 8.671 20.1 19 20.1c.605 0 1.1-.495 1.1-1.1v-3.85c0-.605-.495-1.1-1.1-1.1zm-1.1-3.85h2.2c0-5.467-4.433-9.9-9.9-9.9v2.2c4.257 0 7.7 3.443 7.7 7.7zm-4.4 0h2.2c0-3.036-2.464-5.5-5.5-5.5v2.2c1.826 0 3.3 1.474 3.3 3.3z"/>
    </g>
</svg>
