<svg xmlns="http://www.w3.org/2000/svg" width="76" height="76" viewBox="0 0 76 76">
    <path fill="#FFF" fill-rule="nonzero" d="M37.8 0C16.924 0 0 16.924 0 37.8c0 20.876 16.924 37.8 37.8 37.8 20.876 0 37.8-16.924 37.8-37.8A37.8 37.8 0 0 0 37.8 0zm0 68.04c-16.701 0-30.24-13.539-30.24-30.24S21.099 7.56 37.8 7.56 68.04 21.099 68.04 37.8A30.24 30.24 0 0 1 37.8 68.04zm13.23-34.02h-9.45v-9.45a1.89 1.89 0 0 0-1.89-1.89h-3.78a1.89 1.89 0 0 0-1.89 1.89v9.45h-9.45a1.89 1.89 0 0 0-1.89 1.89v3.78a1.89 1.89 0 0 0 1.89 1.89h9.45v9.45a1.89 1.89 0 0 0 1.89 1.89h3.78a1.89 1.89 0 0 0 1.89-1.89v-9.45h9.45a1.89 1.89 0 0 0 1.89-1.89v-3.78a1.89 1.89 0 0 0-1.89-1.89z" opacity=".309" style="mix-blend-mode:overlay"/>
</svg>
