<svg xmlns="http://www.w3.org/2000/svg" width="25" height="25" viewBox="0 0 25 25">
    <g fill="none" fill-rule="evenodd" stroke="#124A6B" stroke-width=".64" transform="translate(1 1)">
        <path d="M15.84 14.304l1.072 1.056M15.312 16.976L14.24 15.92M2.608 2.688c-3.44 3.44-3.44 9.04 0 12.48 3.44 3.44 9.04 3.44 12.48 0 3.44-3.44 3.44-9.04 0-12.48-3.456-3.456-9.04-3.456-12.48 0zm11.36 11.36A7.252 7.252 0 1 1 3.712 3.791a7.252 7.252 0 0 1 10.256 10.257zM22.624 22.64c-.72.72-1.872.72-2.592 0L14.8 17.472l2.592-2.592 5.232 5.168c.704.72.704 1.872 0 2.592z"/>
        <path d="M12.672 12.4c0 .368-.368.368-.368.368H5.12s-.368 0-.368-.368c0-.912.544-1.648 1.12-2.416.208-.272.56-.704 1.056-1.152.496.48 1.184.768 1.92.768.72 0 1.376-.272 1.872-.704.976.88 1.952 2.256 1.952 3.504z"/>
        <circle cx="8.832" cy="7.328" r="2.24"/>
    </g>
</svg>
