<svg xmlns="http://www.w3.org/2000/svg" width="66" height="48" viewBox="0 0 66 48">
    <path fill="#124A6B" fill-rule="nonzero" d="M47.667 43.65a3 3 0 0 1-2.67 4.35H2.991a3 3 0 0 1-2.67-4.35l4.32-8.67A9.001 9.001 0 0 1 12.714 30h22.563a9.001 9.001 0 0 1 8.07 4.98l4.321 8.67zM23.994 24c6.629 0 12.002-5.373 12.002-12S30.623 0 23.994 0c-6.628 0-12.001 5.373-12.001 12s5.373 12 12.001 12zM64.5 18h-7.501v-7.5a1.5 1.5 0 0 0-1.5-1.5h-3a1.5 1.5 0 0 0-1.501 1.5V18h-7.501a1.5 1.5 0 0 0-1.5 1.5v3a1.5 1.5 0 0 0 1.5 1.5h7.5v7.5a1.5 1.5 0 0 0 1.501 1.5h3a1.5 1.5 0 0 0 1.5-1.5V24H64.5a1.5 1.5 0 0 0 1.5-1.5v-3a1.5 1.5 0 0 0-1.5-1.5z"/>
</svg>
