<svg xmlns="http://www.w3.org/2000/svg" width="37" height="37" viewBox="0 0 37 37">
    <defs>
        <linearGradient id="a" x1="12.128%" x2="94.736%" y1="85.511%" y2="7.686%">
            <stop offset="0%" stop-color="#CD1F24"/>
            <stop offset="100%" stop-color="#F06E21"/>
        </linearGradient>
    </defs>
    <g fill="none" fill-rule="evenodd">
        <circle cx="18.5" cy="18.5" r="18.5" fill="url(#a)"/>
        <path fill="#FFF" d="M19 15.9c-1.505 0-2.727 1.166-2.727 2.6 0 1.434 1.222 2.6 2.727 2.6s2.727-1.166 2.727-2.6c0-1.434-1.222-2.6-2.727-2.6m0 6.933c-2.51 0-4.545-1.941-4.545-4.333 0-2.392 2.036-4.333 4.545-4.333 2.51 0 4.545 1.941 4.545 4.333 0 2.392-2.036 4.333-4.545 4.333M19 12c-4.545 0-8.427 2.695-10 6.5 1.573 3.805 5.455 6.5 10 6.5s8.427-2.695 10-6.5c-1.573-3.805-5.45-6.5-10-6.5"/>
    </g>
</svg>
