<svg xmlns="http://www.w3.org/2000/svg" width="62" height="58" viewBox="0 0 62 58">
<defs>
        <linearGradient id="a" x1="12.128%" x2="94.736%" y1="85.511%" y2="7.686%">
            <stop offset="0%" stop-color="#0274BE"/>
            <stop offset="100%" stop-color="#0274BE"/>
        </linearGradient>
    </defs>
    <path fill="url(#a)" fill-rule="evenodd" d="M42.015 51.975a1.024 1.024 0 0 1 1.987.498l-1.025 4.096a1.024 1.024 0 0 1-1.986-.498zm4.065.249c.566 0 1.024.459 1.024 1.024v3.072a1.024 1.024 0 1 1-2.048 0v-3.072c0-.565.458-1.024 1.024-1.024zm2.824-.993a1.024 1.024 0 0 1 1.241.744l1.024 4.096a1.024 1.024 0 1 1-1.986.498l-1.024-4.096a1.024 1.024 0 0 1 .745-1.242zM30.33.078c.25-.104.531-.104.782 0l29.697 12.288a1.025 1.025 0 0 1 0 1.892l-13.704 5.67v1.851l12.288-5.057v-.338a1.024 1.024 0 1 1 2.048 0v1.024c0 .415-.25.79-.634.947l-13.702 5.64v12.701c1.255-1.32 1.87-2.66 2.048-3.093v-6.979a1.024 1.024 0 1 1 2.048 0v7.168c0 .114-.02.227-.056.335-.046.131-1.1 3.086-4.04 5.305v5.812a3.07 3.07 0 0 1 2.048 2.884A3.076 3.076 0 0 1 46.08 51.2a3.076 3.076 0 0 1-3.072-3.072 3.07 3.07 0 0 1 2.048-2.884V20.017L33.37 15.654c-.71.45-1.625.73-2.65.73-2.297 0-4.096-1.35-4.096-3.072 0-1.723 1.8-3.072 4.096-3.072 2.297 0 4.096 1.35 4.096 3.072 0 .228-.036.447-.095.66l11.26 4.205 11.757-4.865L30.72 2.132 3.702 13.312l27.018 11.18 10.347-4.28a1.023 1.023 0 1 1 .782 1.891l-10.738 4.443a1.012 1.012 0 0 1-.782 0L.633 14.258a1.023 1.023 0 0 1 0-1.892zM46.08 47.104a1.025 1.025 0 0 0 0 2.048 1.025 1.025 0 0 0 0-2.048zM11.264 25.6c.565 0 1.024.459 1.024 1.024v6.955c.59 1.282 4.693 8.984 17.408 9.39v-9.177a1.024 1.024 0 0 1 2.048 0v9.186c4.594-.152 7.842-1.27 9.786-2.232a1.022 1.022 0 0 1 1.372.465c.252.507.043 1.12-.464 1.37-2.284 1.13-6.17 2.475-11.718 2.475-15.87 0-20.229-10.44-20.407-10.883a1.036 1.036 0 0 1-.073-.381v-7.168c0-.565.459-1.024 1.024-1.024zM1.024 15.36c.565 0 1.024.459 1.024 1.024v.34L30.72 28.588l10.87-4.5a1.024 1.024 0 1 1 .784 1.892h.001l-11.264 4.662a1.017 1.017 0 0 1-.782 0L.633 18.354A1.023 1.023 0 0 1 0 17.408v-1.024c0-.565.459-1.024 1.024-1.024zm29.696-3.072c-1.25 0-2.048.606-2.048 1.024 0 .418.798 1.024 2.048 1.024s2.048-.606 2.048-1.024c0-.418-.798-1.024-2.048-1.024z"/>
</svg>
