<svg xmlns="http://www.w3.org/2000/svg" width="50" height="50" viewBox="0 0 50 50">
    <defs>
        <linearGradient id="a" x1="12.128%" x2="94.736%" y1="85.511%" y2="7.686%">
            <stop offset="0%" stop-color="#0274BE"/>
            <stop offset="100%" stop-color="#0274BE"/>
        </linearGradient>
    </defs>
    <path fill="url(#a)" fill-rule="evenodd" d="M171.6 63.4c3.087 0 5.6 2.512 5.6 5.6 0 3.088-2.513 5.6-5.6 5.6A5.607 5.607 0 0 1 166 69c0-3.088 2.513-5.6 5.6-5.6zM165.223 25c7.927 0 14.377 6.45 14.377 14.377 0 3.84-1.495 7.45-4.211 10.165L166.33 58.6h6.069c1.323 0 2.4 1.077 2.4 2.4s-1.077 2.4-2.4 2.4h-8.04c.02.265.04.53.04.8 0 5.734-4.666 10.4-10.4 10.4s-10.4-4.666-10.4-10.4v-5.269l-9.389-9.389A14.28 14.28 0 0 1 130 39.377C130 31.45 136.45 25 144.377 25c3.84 0 7.45 1.495 10.165 4.211l.258.258.258-.258A14.281 14.281 0 0 1 165.223 25zm6.377 40c-2.206 0-4 1.794-4 4s1.794 4 4 4 4-1.794 4-4-1.794-4-4-4zM154 55.4c-4.852 0-8.8 3.948-8.8 8.8s3.948 8.8 8.8 8.8 8.8-3.948 8.8-8.8-3.948-8.8-8.8-8.8zm17.6 11.2c1.323 0 2.4 1.077 2.4 2.4s-1.077 2.4-2.4 2.4a2.403 2.403 0 0 1-2.4-2.4c0-1.323 1.077-2.4 2.4-2.4zM154 57.8c3.529 0 6.4 2.871 6.4 6.4 0 3.529-2.871 6.4-6.4 6.4a6.407 6.407 0 0 1-6.4-6.4c0-3.529 2.871-6.4 6.4-6.4zm17.6 10.4a.8.8 0 1 0 .002 1.602.8.8 0 0 0-.002-1.602zM154 65.56l-2.131 2.934c.643.321 1.365.506 2.131.506a4.76 4.76 0 0 0 2.131-.506L154 65.561zm-4.743-2.06a4.804 4.804 0 0 0-.057.7c0 1.306.526 2.49 1.374 3.356l2.132-2.935zm9.486 0l-3.449 1.12 2.132 2.935A4.782 4.782 0 0 0 158.8 64.2c0-.238-.023-.471-.057-.7zm-3.943-4.028v3.627l3.45-1.121a4.809 4.809 0 0 0-3.45-2.506zm-1.6 0a4.809 4.809 0 0 0-3.45 2.506l3.45 1.12zm19.2.728h-8.802c.215.513.381 1.05.512 1.6h8.29a.8.8 0 0 0 0-1.6zm-28.8-21.52v1.667a2.397 2.397 0 0 1 1.6 2.253v16.083c.454-.72.989-1.383 1.6-1.97V42.6a4.007 4.007 0 0 0-3.2-3.92zm21.6 7.92h-16.8v1.6h1.6v1.6h-1.6v5.65a10.33 10.33 0 0 1 5.6-1.65c3.672 0 6.898 1.918 8.75 4.8h.85v-4.8c0-2.206-1.794-4-4-4h-8v-1.6h13.6a.8.8 0 0 0 0-1.6zm.023-20c-3.412 0-6.62 1.329-9.034 3.742l-1.389 1.39-1.389-1.39a12.692 12.692 0 0 0-9.034-3.742c-7.046 0-12.777 5.732-12.777 12.777 0 3.412 1.329 6.62 3.742 9.034l8.258 8.258V42.6a.8.8 0 0 0-.8-.8H138a2.403 2.403 0 0 1-2.4-2.4c0-1.323 1.077-2.4 2.4-2.4h4.8c3.087 0 5.6 2.512 5.6 5.6V45h16.8c1.323 0 2.4 1.077 2.4 2.4s-1.077 2.4-2.4 2.4h-1.689a5.579 5.579 0 0 1 1.689 4v3.669l9.058-9.058A12.692 12.692 0 0 0 178 39.377c0-7.045-5.731-12.777-12.777-12.777zm7.857 18.257l1.311.917c-.374.534-.8 1.04-1.265 1.506l-1.13-1.131c.398-.4.763-.835 1.084-1.292zM165.223 28.2c6.163 0 11.177 5.014 11.177 11.177 0 1.667-.355 3.267-1.057 4.757l-1.447-.683c.6-1.273.904-2.645.904-4.074 0-5.281-4.296-9.577-9.577-9.577zM138.8 38.6h-.8a.8.8 0 0 0 0 1.6h.8v-1.6zm3.2 0h-1.6v1.6h1.6v-1.6z" transform="translate(-130 -25)"/>
</svg>
