<svg xmlns="http://www.w3.org/2000/svg" width="50" height="50" viewBox="0 0 50 50">
    <defs>
        <linearGradient id="a" x1="12.128%" x2="94.736%" y1="85.511%" y2="7.686%">
            <stop offset="0%" stop-color="#0274BE"/>
            <stop offset="100%" stop-color="#0274BE"/>
        </linearGradient>
    </defs>
    <path fill="url(#a)" fill-rule="evenodd" d="M20.8 0c11.47 0 20.8 9.331 20.8 20.8 0 2.572-.466 5.058-1.37 7.418A7.591 7.591 0 0 1 42.012 28c4.184 0 7.588 3.404 7.588 7.588a7.536 7.536 0 0 1-2.222 5.366l-6.716 6.715A6.55 6.55 0 0 1 36 49.6a6.55 6.55 0 0 1-4.663-1.932l-6.473-6.473a20.92 20.92 0 0 1-4.064.405C9.33 41.6 0 32.27 0 20.8 0 9.331 9.33 0 20.8 0zm21.212 29.6c-1.6 0-3.103.622-4.234 1.754L36 33.13l-1.778-1.777a5.949 5.949 0 0 0-4.234-1.754A5.994 5.994 0 0 0 24 35.588c0 1.6.622 3.103 1.754 4.234l6.715 6.716A4.961 4.961 0 0 0 36 48c1.334 0 2.588-.52 3.531-1.462l6.715-6.716A5.949 5.949 0 0 0 48 35.588a5.994 5.994 0 0 0-5.988-5.988zm-8.419 13.541l1.137 1.137L33.6 45.41l-1.137-1.137 1.131-1.132zM29.988 31.2v1.6a2.79 2.79 0 0 0-2.788 2.788c0 .745.29 1.445.817 1.972l4.49 4.49-1.132 1.132-4.49-4.49a4.363 4.363 0 0 1-1.285-3.104 4.393 4.393 0 0 1 4.388-4.388zM20.8 1.6c-10.586 0-19.2 8.614-19.2 19.2C1.6 31.386 10.214 40 20.8 40c.96 0 1.917-.08 2.86-.22a7.503 7.503 0 0 1-1.17-3.08c-.56.06-1.124.1-1.69.1-8.822 0-16-7.178-16-16s7.178-16 16-16 16 7.178 16 16c0 3.06-.864 5.997-2.49 8.555.368.257.72.543 1.044.867l.646.647.646-.647a7.578 7.578 0 0 1 1.478-1.144A19.008 19.008 0 0 0 40 20.8c0-10.586-8.614-19.2-19.2-19.2zm0 4.8c-7.94 0-14.4 6.46-14.4 14.4s6.46 14.4 14.4 14.4c.545 0 1.087-.042 1.625-.102C22.679 31.142 25.97 28 29.988 28c1.02 0 2.006.2 2.92.58A14.293 14.293 0 0 0 35.2 20.8c0-7.94-6.46-14.4-14.4-14.4zm.8 2.4V12h.8c2.647 0 4.8 2.153 4.8 4.8v1.6h-1.6v-1.6c0-1.765-1.435-3.2-3.2-3.2h-3.2a3.203 3.203 0 0 0-3.2 3.2c0 1.765 1.435 3.2 3.2 3.2h3.2c2.647 0 4.8 2.153 4.8 4.8s-2.153 4.8-4.8 4.8h-.8v3.2H20v-3.2h-.8a4.805 4.805 0 0 1-4.8-4.8v-1.6H16v1.6c0 1.765 1.435 3.2 3.2 3.2h3.2c1.765 0 3.2-1.435 3.2-3.2 0-1.765-1.435-3.2-3.2-3.2h-3.2a4.805 4.805 0 0 1-4.8-4.8c0-2.647 2.153-4.8 4.8-4.8h.8V8.8h1.6zM30.4 20v1.6h-1.6V20h1.6zm-17.6 0v1.6h-1.6V20h1.6z"/>
</svg>
